<svg width="84" height="84" viewBox="0 0 84 84" fill="none" xmlns="http://www.w3.org/2000/svg">
<path opacity="0.15" d="M24.5 79.625C24.5 80.3212 26.3437 80.9889 29.6256 81.4812C32.9075 81.9734 37.3587 82.25 42 82.25C46.6413 82.25 51.0925 81.9734 54.3744 81.4812C57.6563 80.9889 59.5 80.3212 59.5 79.625C59.5 78.9288 57.6563 78.2611 54.3744 77.7688C51.0925 77.2766 46.6413 77 42 77C37.3587 77 32.9075 77.2766 29.6256 77.7688C26.3437 78.2611 24.5 78.9288 24.5 79.625Z" fill="#45413C"/>
<path d="M45.1329 20.5625C42.8732 16.4113 41.7901 11.7217 42.0004 7C42.2064 11.6871 41.1422 16.3428 38.9204 20.475" stroke="#45413C" stroke-width="1.75" stroke-linecap="round" stroke-linejoin="round"/>
<path d="M12.3941 44.29C12.8318 44.8107 13.6184 45.0295 14.7087 44.934C15.7991 44.8384 17.1721 44.4303 18.7491 43.733C20.3262 43.0357 22.0765 42.0629 23.9002 40.87C25.7238 39.6771 27.5851 38.2876 29.3777 36.7807C31.1703 35.2739 32.8592 33.6793 34.3478 32.0878C35.8365 30.4964 37.0958 28.9394 38.0538 27.5057C39.0119 26.072 39.6499 24.7897 39.9315 23.732C40.2131 22.6743 40.1328 21.8618 39.6951 21.3411C39.2574 20.8204 38.4709 20.6016 37.3805 20.6971C36.2901 20.7927 34.9172 21.2008 33.3401 21.8981C31.763 22.5954 30.0127 23.5682 28.189 24.7611C26.3654 25.954 24.5041 27.3435 22.7115 28.8503C20.9189 30.3572 19.2301 31.9518 17.7414 33.5432C16.2528 35.1347 14.9935 36.6917 14.0354 38.1254C13.0774 39.5591 12.4393 40.8414 12.1577 41.8991C11.8761 42.9568 11.9564 43.7693 12.3941 44.29Z" fill="#EBCB00" stroke="#45413C" stroke-width="1.75" stroke-linecap="round" stroke-linejoin="round"/>
<path d="M39.7068 21.35C37.8518 19.1625 30.2568 22.5225 22.7143 28.8575C15.1718 35.1925 10.4993 42.105 12.4068 44.2925C10.8547 42.5061 9.6737 40.4287 8.93262 38.1812C8.19153 35.9338 7.90519 33.5613 8.09027 31.2021C8.27535 28.8429 8.92817 26.5441 10.0107 24.4397C11.0931 22.3353 12.5837 20.4674 14.3953 18.9449C16.207 17.4224 18.3036 16.2757 20.5629 15.5717C22.8223 14.8677 25.1991 14.6204 27.555 14.8442C29.9108 15.0681 32.1986 15.7586 34.2849 16.8756C36.3712 17.9925 38.2143 19.5135 39.7068 21.35Z" fill="#FFE500"/>
<path d="M14.6119 22.75C17.4544 20.3663 20.9696 18.9285 24.6679 18.6368C28.3661 18.3451 32.0633 19.214 35.2444 21.1225C37.3794 20.44 38.9719 20.44 39.7069 21.2975C37.2429 18.3608 33.8982 16.2963 30.1686 15.41C26.439 14.5238 22.5231 14.863 19.0015 16.3773C15.4798 17.8916 12.5399 20.5005 10.6176 23.8171C8.69526 27.1337 7.89287 30.9815 8.32939 34.79C8.7461 30.1029 11.0056 25.7727 14.6119 22.75Z" fill="#FFF48C"/>
<path d="M39.7068 21.35C37.8518 19.1625 30.2568 22.5225 22.7143 28.8575C15.1718 35.1925 10.4993 42.105 12.4068 44.2925C10.8547 42.5061 9.6737 40.4287 8.93262 38.1812C8.19153 35.9338 7.90519 33.5613 8.09027 31.2021C8.27535 28.8429 8.92817 26.5441 10.0107 24.4397C11.0931 22.3353 12.5837 20.4674 14.3953 18.9449C16.207 17.4224 18.3036 16.2757 20.5629 15.5717C22.8223 14.8677 25.1991 14.6204 27.555 14.8442C29.9108 15.0681 32.1986 15.7586 34.2849 16.8756C36.3712 17.9925 38.2143 19.5135 39.7068 21.35V21.35Z" stroke="#45413C" stroke-width="1.75" stroke-linecap="round" stroke-linejoin="round"/>
<path d="M54.6046 36.7771C58.2249 39.8203 62.0481 42.3211 65.2332 43.7294C68.4182 45.1376 70.7042 45.338 71.5882 44.2863C72.4722 43.2347 71.8818 41.0172 69.9469 38.1217C68.012 35.2262 64.8911 31.8899 61.2708 28.8467C57.6505 25.8035 53.8272 23.3027 50.6422 21.8944C47.4572 20.4862 45.1712 20.2858 44.2872 21.3375C43.4032 22.3891 43.9936 24.6066 45.9285 27.5021C47.8634 30.3976 50.9842 33.7339 54.6046 36.7771Z" fill="#EBCB00" stroke="#45413C" stroke-width="1.75" stroke-linecap="round" stroke-linejoin="round"/>
<path d="M44.292 21.35C46.147 19.1625 53.742 22.5225 61.2845 28.8575C68.827 35.1925 73.4295 42.105 71.592 44.2925C73.1441 42.5061 74.3251 40.4287 75.0662 38.1812C75.8073 35.9338 76.0936 33.5613 75.9085 31.2021C75.7234 28.8429 75.0706 26.5441 73.9881 24.4397C72.9056 22.3353 71.4151 20.4674 69.6034 18.9449C67.7918 17.4224 65.6952 16.2757 63.4359 15.5717C61.1765 14.8677 58.7997 14.6204 56.4438 14.8442C54.0879 15.0681 51.8002 15.7586 49.7139 16.8756C47.6276 17.9925 45.7845 19.5135 44.292 21.35Z" fill="#FFE500"/>
<path d="M69.387 22.75C66.5444 20.3663 63.0292 18.9285 59.331 18.6368C55.6328 18.3451 51.9356 19.214 48.7545 21.1225C46.6195 20.44 45.027 20.44 44.292 21.2975C46.7538 18.367 50.0931 16.3063 53.8163 15.4199C57.5396 14.5335 61.4492 14.8686 64.9674 16.3755C68.4855 17.8825 71.4255 20.4813 73.3528 23.788C75.28 27.0947 76.0923 30.9336 75.6695 34.7375C75.2393 30.0692 72.9811 25.7602 69.387 22.75Z" fill="#FFF48C"/>
<path d="M44.292 21.35C46.147 19.1625 53.742 22.5225 61.2845 28.8575C68.827 35.1925 73.4295 42.105 71.592 44.2925C73.1441 42.5061 74.3251 40.4287 75.0662 38.1812C75.8073 35.9338 76.0936 33.5613 75.9085 31.2021C75.7234 28.8429 75.0706 26.5441 73.9881 24.4397C72.9056 22.3353 71.4151 20.4674 69.6034 18.9449C67.7918 17.4224 65.6952 16.2757 63.4359 15.5717C61.1765 14.8677 58.7997 14.6204 56.4438 14.8442C54.0879 15.0681 51.8002 15.7586 49.7139 16.8756C47.6276 17.9925 45.7845 19.5135 44.292 21.35V21.35Z" stroke="#45413C" stroke-width="1.75" stroke-linecap="round" stroke-linejoin="round"/>
<path d="M8.575 51.3975C7.96047 52.3564 7.12124 53.1509 6.13012 53.712C5.13901 54.2731 4.02594 54.584 2.8875 54.6175L0.875 51.1175C2.01344 51.084 3.12651 50.7731 4.11762 50.212C5.10874 49.6509 5.94797 48.8564 6.5625 47.8975L8.575 51.3975Z" fill="#00F5BC" stroke="#45413C" stroke-width="1.75" stroke-linecap="round" stroke-linejoin="round"/>
<path d="M54.88 29.89C54.9118 31.0283 54.6655 32.1573 54.1623 33.1789C53.6591 34.2005 52.9143 35.0839 51.9925 35.7525L48.335 34.0025C49.2536 33.332 49.995 32.4477 50.4951 31.4262C50.9952 30.4047 51.2388 29.2768 51.205 28.14L54.88 29.89Z" fill="#FF6242" stroke="#45413C" stroke-width="1.75" stroke-linecap="round" stroke-linejoin="round"/>
<path d="M53.533 70.6126C52.8034 69.7391 52.2977 68.7008 52.0598 67.5878C51.822 66.4747 51.8591 65.3205 52.168 64.2251L56.158 63.3676C55.8491 64.463 55.812 65.6172 56.0498 66.7303C56.2877 67.8433 56.7934 68.8816 57.523 69.7551L53.533 70.6126Z" fill="#FF6196" stroke="#45413C" stroke-width="1.75" stroke-linecap="round" stroke-linejoin="round"/>
<path d="M33.2502 28.28C32.5299 29.1653 32.0368 30.2132 31.8142 31.3327C31.5915 32.4521 31.646 33.6089 31.9727 34.7025L35.9802 35.49C35.6565 34.399 35.6036 33.2454 35.8262 32.1294C36.0488 31.0133 36.5402 29.9683 37.2577 29.085L33.2502 28.28Z" fill="#BF8DF2" stroke="#45413C" stroke-width="1.75" stroke-linecap="round" stroke-linejoin="round"/>
<path d="M76.1079 50.75C77.0382 51.4115 78.1161 51.8354 79.2477 51.9848C80.3793 52.1343 81.5303 52.0048 82.6004 51.6075L83.1254 47.5475C82.0608 47.9534 80.9121 48.0891 79.7822 47.9425C78.6522 47.7959 77.5763 47.3716 76.6504 46.7075L76.1079 50.75Z" fill="#BF8DF2" stroke="#45413C" stroke-width="1.75" stroke-linecap="round" stroke-linejoin="round"/>
<path d="M47.985 55.65C47.453 56.6597 46.6821 57.524 45.7396 58.1675C44.7971 58.8111 43.7116 59.2145 42.5775 59.3425L40.25 56C41.3841 55.872 42.4696 55.4686 43.4121 54.825C44.3546 54.1815 45.1255 53.3172 45.6575 52.3075L47.985 55.65Z" fill="#FF8A14" stroke="#45413C" stroke-width="1.75" stroke-linecap="round" stroke-linejoin="round"/>
<path d="M37.5025 42.735C38.6429 42.7836 39.7542 43.1104 40.7394 43.6869C41.7246 44.2634 42.5539 45.0721 43.155 46.0425L41.09 49.5425C40.4889 48.5721 39.6596 47.7634 38.6744 47.1869C37.6892 46.6104 36.5779 46.2836 35.4375 46.235L37.5025 42.735Z" fill="#4AEFF7" stroke="#45413C" stroke-width="1.75" stroke-linecap="round" stroke-linejoin="round"/>
<path d="M27.6152 67.6199C27.8632 66.5047 28.3804 65.4671 29.1217 64.5977C29.8629 63.7284 30.8057 63.0536 31.8677 62.6324L35.0002 65.2924C33.9436 65.7143 33.0057 66.3874 32.2677 67.2534C31.5298 68.1194 31.0141 69.1522 30.7652 70.2624L27.6152 67.6199Z" fill="#FFF48C" stroke="#45413C" stroke-width="1.75" stroke-linecap="round" stroke-linejoin="round"/>
<path d="M24.6569 60.7425C21.7148 65.2356 17.5067 68.7555 12.5644 70.8575L11.0244 67.7075C17.3419 64.61 20.0019 62.0725 23.6419 55.7375L26.5294 57.75C25.8819 58.835 25.3044 59.78 24.6569 60.7425Z" fill="#FF6242"/>
<path d="M22.3475 63.805C23.1826 62.8349 23.9542 61.8119 24.6575 60.7425C25.305 59.78 25.8825 58.835 26.53 57.6975L23.6425 55.7375C22.1281 58.6405 20.1275 61.2626 17.7275 63.49C19.2225 63.9508 20.8039 64.0586 22.3475 63.805Z" fill="#E04122"/>
<path d="M24.6569 60.7425C21.7148 65.2356 17.5067 68.7555 12.5644 70.8575L11.0244 67.7075C17.3419 64.61 20.0019 62.0725 23.6419 55.7375L26.5294 57.75C25.8819 58.835 25.3044 59.78 24.6569 60.7425Z" stroke="#45413C" stroke-width="1.75" stroke-linecap="round" stroke-linejoin="round"/>
<path d="M27.8258 38.9725C28.1578 42.6776 27.729 46.4115 26.5658 49.945C26.0617 49.1637 25.4001 48.4961 24.6233 47.985C23.472 47.2219 22.1207 46.8164 20.7394 46.8197C19.3582 46.8229 18.0088 47.2347 16.8611 48.0032C15.7134 48.7717 14.8187 49.8626 14.2897 51.1385C13.7606 52.4144 13.6209 53.8183 13.888 55.1735C14.1552 56.5287 14.8173 57.7745 15.791 58.7542C16.7647 59.7339 18.0064 60.4036 19.3599 60.679C20.7134 60.9545 22.1181 60.8234 23.3973 60.3021C24.6764 59.7809 25.7728 58.893 26.5483 57.75C30.9233 51.205 31.5183 46.165 31.3258 38.9375L27.8258 38.9725ZM18.7783 56.7C18.2043 56.314 17.7576 55.7667 17.4945 55.127C17.2314 54.4873 17.1637 53.7841 17.3 53.106C17.4363 52.4279 17.7705 51.8053 18.2603 51.317C18.7501 50.8287 19.3736 50.4964 20.0521 50.3622C20.7306 50.2279 21.4337 50.2977 22.0726 50.5628C22.7114 50.8278 23.2574 51.2762 23.6417 51.8513C24.0259 52.4264 24.2311 53.1025 24.2314 53.7942C24.2317 54.4858 24.027 55.1621 23.6433 55.7375C23.3877 56.1208 23.0588 56.4499 22.6757 56.7059C22.2926 56.9619 21.8627 57.1397 21.4107 57.2291C20.9587 57.3185 20.4935 57.3178 20.0417 57.227C19.59 57.1362 19.1606 56.9571 18.7783 56.7Z" fill="#FF6242"/>
<path d="M24.6222 47.9849L24.2547 47.7574C23.8631 48.8768 23.4133 49.975 22.9072 51.0474C23.5967 51.5938 24.0552 52.3797 24.1914 53.2488C24.3276 54.1179 24.1315 55.0064 23.6422 55.7374C24.8817 53.9523 25.8653 52.0026 26.5647 49.9449C26.0606 49.1636 25.399 48.4961 24.6222 47.9849Z" fill="#E04122"/>
<path d="M27.8258 38.9725C28.1578 42.6776 27.729 46.4115 26.5658 49.945C26.0617 49.1637 25.4001 48.4961 24.6233 47.985C23.472 47.2219 22.1207 46.8164 20.7394 46.8197C19.3582 46.8229 18.0088 47.2347 16.8611 48.0032C15.7134 48.7717 14.8187 49.8626 14.2897 51.1385C13.7606 52.4144 13.6209 53.8183 13.888 55.1735C14.1552 56.5287 14.8173 57.7745 15.791 58.7542C16.7647 59.7339 18.0064 60.4036 19.3599 60.679C20.7134 60.9545 22.1181 60.8234 23.3973 60.3021C24.6764 59.7809 25.7728 58.893 26.5483 57.75C30.9233 51.205 31.5183 46.165 31.3258 38.9375L27.8258 38.9725ZM18.7783 56.7C18.2043 56.314 17.7576 55.7667 17.4945 55.127C17.2314 54.4873 17.1637 53.7841 17.3 53.106C17.4363 52.4279 17.7705 51.8053 18.2603 51.317C18.7501 50.8287 19.3736 50.4964 20.0521 50.3622C20.7306 50.2279 21.4337 50.2977 22.0726 50.5628C22.7114 50.8278 23.2574 51.2762 23.6417 51.8513C24.0259 52.4264 24.2311 53.1025 24.2314 53.7942C24.2317 54.4858 24.027 55.1621 23.6433 55.7375C23.3877 56.1208 23.0588 56.4499 22.6757 56.7059C22.2926 56.9619 21.8627 57.1397 21.4107 57.2291C20.9587 57.3185 20.4935 57.3178 20.0417 57.227C19.59 57.1362 19.1606 56.9571 18.7783 56.7Z" stroke="#45413C" stroke-width="1.75" stroke-linecap="round" stroke-linejoin="round"/>
<path d="M23.6421 55.7374C24.8815 53.9523 25.8652 52.0026 26.5646 49.9449" stroke="#45413C" stroke-width="1.75" stroke-linecap="round" stroke-linejoin="round"/>
<path d="M60.9176 59.8325C64.7754 63.5415 69.6483 66.0206 74.9176 66.955L75.7051 63.5425C68.8451 61.95 65.6951 60.0425 60.7251 54.7925L58.3276 57.3475C59.3076 58.2575 60.0776 59.045 60.9176 59.8325Z" fill="#6DD627"/>
<path d="M63.875 62.3C62.8377 61.5412 61.8499 60.717 60.9175 59.8325C60.0775 59.045 59.3075 58.2576 58.3975 57.2951L60.795 54.7401C62.9079 57.2205 65.4292 59.3216 68.25 60.9526C66.9125 61.7273 65.4165 62.1881 63.875 62.3Z" fill="#46B000"/>
<path d="M60.9176 59.8325C64.7754 63.5415 69.6483 66.0206 74.9176 66.955L75.7051 63.5425C68.8451 61.95 65.6951 60.0425 60.7251 54.7925L58.3276 57.3475C59.3076 58.2575 60.0776 59.045 60.9176 59.8325Z" stroke="#45413C" stroke-width="1.75" stroke-linecap="round" stroke-linejoin="round"/>
<path d="M49.4717 40.0575C50.9242 47.145 52.6392 51.9225 58.3967 57.295C59.4077 58.2414 60.6767 58.8667 62.0431 59.0917C63.4096 59.3168 64.8121 59.1314 66.0731 58.5592C67.3342 57.9869 68.3973 57.0535 69.1277 55.8769C69.8581 54.7004 70.2232 53.3336 70.1766 51.9495C70.1301 50.5654 69.674 49.2263 68.8662 48.1014C68.0584 46.9766 66.9351 46.1167 65.6384 45.6304C64.3417 45.1442 62.9299 45.0535 61.5817 45.3698C60.2334 45.6861 59.0093 46.3953 58.0642 47.4075C57.4329 48.0878 56.9396 48.8842 56.6117 49.7525C54.692 46.5706 53.4304 43.0358 52.9017 39.3575L49.4717 40.0575ZM60.7942 54.74C60.2876 54.2671 59.9328 53.6545 59.7748 52.9798C59.6167 52.3051 59.6625 51.5987 59.9064 50.95C60.1502 50.3013 60.5811 49.7397 61.1444 49.3361C61.7078 48.9326 62.3783 48.7054 63.0709 48.6833C63.7635 48.6612 64.4471 48.8452 65.035 49.212C65.623 49.5788 66.0888 50.1118 66.3735 50.7436C66.6582 51.3754 66.749 52.0775 66.6343 52.7609C66.5195 53.4443 66.2046 54.0783 65.7292 54.5825C65.0945 55.2557 64.219 55.6502 63.2942 55.6797C62.3694 55.7093 61.4705 55.3714 60.7942 54.74Z" fill="#6DD627"/>
<path d="M58.0643 47.4075L58.3618 47.0925C59.0015 48.1043 59.6967 49.08 60.4443 50.015C59.8997 50.703 59.6334 51.5706 59.6983 52.4457C59.7631 53.3208 60.1543 54.1397 60.7943 54.74C59.1695 53.2854 57.7611 51.6059 56.6118 49.7525C56.9398 48.8842 57.433 48.0878 58.0643 47.4075Z" fill="#46B000"/>
<path d="M49.4717 40.0575C50.9242 47.145 52.6392 51.9225 58.3967 57.295C59.4077 58.2414 60.6767 58.8667 62.0431 59.0917C63.4096 59.3168 64.8121 59.1314 66.0731 58.5592C67.3342 57.9869 68.3973 57.0535 69.1277 55.8769C69.8581 54.7004 70.2232 53.3336 70.1766 51.9495C70.1301 50.5654 69.674 49.2263 68.8662 48.1014C68.0584 46.9766 66.9351 46.1167 65.6384 45.6304C64.3417 45.1442 62.9299 45.0535 61.5817 45.3698C60.2334 45.6861 59.0093 46.3953 58.0642 47.4075C57.4329 48.0878 56.9396 48.8842 56.6117 49.7525C54.692 46.5706 53.4304 43.0358 52.9017 39.3575L49.4717 40.0575ZM60.7942 54.74C60.2876 54.2671 59.9328 53.6545 59.7748 52.9798C59.6167 52.3051 59.6625 51.5987 59.9064 50.95C60.1502 50.3013 60.5811 49.7397 61.1444 49.3361C61.7078 48.9326 62.3783 48.7054 63.0709 48.6833C63.7635 48.6612 64.4471 48.8452 65.035 49.212C65.623 49.5788 66.0888 50.1118 66.3735 50.7436C66.6582 51.3754 66.749 52.0775 66.6343 52.7609C66.5195 53.4443 66.2046 54.0783 65.7292 54.5825C65.0945 55.2557 64.219 55.6502 63.2942 55.6797C62.3694 55.7093 61.4705 55.3714 60.7942 54.74V54.74Z" stroke="#45413C" stroke-width="1.75" stroke-linecap="round" stroke-linejoin="round"/>
<path d="M60.7943 54.74C59.1695 53.2854 57.7611 51.6059 56.6118 49.7525" stroke="#45413C" stroke-width="1.75" stroke-linecap="round" stroke-linejoin="round"/>
</svg>
