<svg width="18" height="19" viewBox="0 0 18 19" fill="none" xmlns="http://www.w3.org/2000/svg">
<rect x="1.45776" y="2.40575" width="14.5763" height="14.5763" rx="7.28814" fill="#FFD300"/>
<path d="M14.5412 9.8274C14.5873 9.71893 14.5819 9.59418 14.5236 9.48842L14.2673 9.02878C14.2985 8.99081 14.3283 8.95013 14.3541 8.90674C14.4517 8.74675 14.5005 8.57048 14.5005 8.38066C14.5005 8.07829 14.388 7.81118 14.1751 7.61051C13.9677 7.41526 13.7019 7.31221 13.4036 7.31221H11.104C10.9494 7.31221 10.8166 7.40306 10.7555 7.53458C10.6457 7.45458 10.5223 7.3895 10.3867 7.34204C10.1617 7.26475 9.92303 7.24577 9.67761 7.28645C9.42406 7.32848 9.2044 7.42339 9.02 7.57119C8.96848 7.42068 8.82475 7.31221 8.65662 7.31221H8.15358C8.00172 7.31221 7.86885 7.40034 7.80783 7.52915L7.76987 7.47492C7.698 7.37187 7.58004 7.31086 7.4553 7.31086H6.25262C6.14415 7.31086 6.04517 7.3556 5.97602 7.42882C5.90551 7.3556 5.80788 7.31086 5.69941 7.31086H5.19366C5.13672 7.31086 4.93876 7.31628 4.88723 7.31628H4.38691C4.27843 7.31628 4.17945 7.36102 4.1103 7.43424C4.0398 7.36102 3.94217 7.31628 3.8337 7.31628H3.33066C3.11779 7.31628 2.94695 7.48848 2.94695 7.7V9.66876C2.94695 9.81655 3.03101 9.94536 3.15304 10.0091C3.04999 10.1637 2.99576 10.3467 2.99576 10.5487C2.99576 10.8145 3.08389 11.0016 3.18423 11.1277L3.10287 11.1752C2.94288 11.2687 2.87102 11.464 2.93474 11.6375C3.01881 11.868 3.1666 12.0538 3.37676 12.1894C3.57608 12.3182 3.8215 12.3833 4.10488 12.3833C4.41945 12.3833 4.68249 12.3006 4.88994 12.1365C4.96181 12.0795 5.02282 12.0158 5.07299 11.9439V11.9562C5.07299 12.169 5.24519 12.3399 5.45671 12.3399C5.45671 12.3399 6.14821 12.3453 6.20109 12.3453L6.75837 12.3426C6.92785 12.3426 7.07836 12.2314 7.12717 12.0687L7.15293 11.9873L7.21124 11.9738L7.25327 12.0565C7.30615 12.2138 7.45259 12.3412 7.618 12.3412L8.1346 12.3534C8.19697 12.3534 8.39222 12.348 8.43697 12.348L8.95221 12.3412C9.1 12.3412 9.22745 12.2585 9.29254 12.1365C9.35762 12.2585 9.48507 12.3412 9.63287 12.3412H10.1386C10.3095 12.3412 10.4545 12.2287 10.5047 12.0741C10.7569 12.2789 11.0579 12.3833 11.3996 12.3833C11.7196 12.3833 12.0043 12.2924 12.247 12.1121C12.3067 12.2477 12.4409 12.3412 12.5982 12.3412H13.104C13.2558 12.3412 13.3873 12.2531 13.4497 12.1243L13.4877 12.1785C13.5595 12.2816 13.6775 12.3426 13.8022 12.3426H14.1927C14.4056 12.3426 14.5765 12.1704 14.5765 11.9589V9.97926C14.5765 9.92502 14.5656 9.8735 14.5453 9.8274" fill="white"/>
<path d="M3.98159 11.9751C3.77278 11.9751 3.59923 11.9303 3.46092 11.8422C3.32262 11.7541 3.22771 11.6334 3.17212 11.4829L3.60465 11.2307C3.67787 11.4056 3.80803 11.4937 3.99515 11.4937C4.14972 11.4937 4.22701 11.4503 4.22701 11.3622C4.22701 11.3039 4.18226 11.2578 4.09277 11.2226C4.05481 11.2076 3.9721 11.1805 3.84464 11.1439C3.66295 11.091 3.52058 11.0178 3.41482 10.9215C3.30906 10.8266 3.25618 10.6938 3.25618 10.5243C3.25618 10.3412 3.32127 10.1934 3.45279 10.0809C3.58431 9.96836 3.74702 9.91141 3.94362 9.91141C4.10904 9.91141 4.25684 9.95073 4.38429 10.0267C4.5131 10.1039 4.61072 10.2165 4.67852 10.3629L4.25412 10.6124C4.19175 10.466 4.0887 10.3914 3.94634 10.3914C3.88532 10.3914 3.84058 10.4036 3.80939 10.428C3.7782 10.4524 3.76329 10.4836 3.76329 10.5216C3.76329 10.5649 3.78634 10.6016 3.83244 10.6327C3.87854 10.6626 3.96803 10.6978 4.10226 10.7385C4.19582 10.7724 4.27311 10.7995 4.33277 10.8212C4.39242 10.8429 4.45751 10.8768 4.52666 10.9229C4.59717 10.969 4.64869 11.0287 4.68259 11.1005C4.71648 11.1724 4.73411 11.2578 4.73411 11.3554C4.73411 11.5493 4.66496 11.7012 4.52801 11.811C4.38971 11.9208 4.20802 11.9751 3.98159 11.9751Z" fill="#592913"/>
<path d="M6.38266 9.91008V10.3996H5.89318V11.8897H5.38607V10.3996H4.89795V9.91008H6.38266Z" fill="#592913"/>
<path d="M9.43208 9.91008V10.3996H8.94396V11.8897H8.43685V10.3996H7.94873V9.91008H9.43208Z" fill="#592913"/>
<path d="M9.53931 11.9113H10.0464V9.93173H9.53931V11.9113Z" fill="#592913"/>
<path d="M10.9913 11.35C11.093 11.4504 11.2205 11.5019 11.3737 11.5019C11.5269 11.5019 11.653 11.4517 11.756 11.35C11.8577 11.2497 11.9093 11.1209 11.9093 10.9636C11.9093 10.8063 11.8577 10.6789 11.756 10.5772C11.6544 10.4768 11.5269 10.4253 11.3737 10.4253C11.2205 10.4253 11.0944 10.4755 10.9913 10.5772C10.8896 10.6775 10.8381 10.8063 10.8381 10.9636C10.8381 11.1209 10.8896 11.2483 10.9913 11.35ZM12.1099 11.6985C11.9093 11.8978 11.6638 11.9968 11.3737 11.9968C11.0835 11.9968 10.8381 11.8978 10.6374 11.6985C10.4368 11.4992 10.3364 11.2551 10.3364 10.965C10.3364 10.6748 10.4368 10.4307 10.6374 10.2314C10.8381 10.0321 11.0835 9.93312 11.3737 9.93312C11.6638 9.93312 11.9093 10.0321 12.1099 10.2314C12.3106 10.4307 12.4109 10.6748 12.4109 10.965C12.4109 11.2551 12.3106 11.5005 12.1099 11.6985Z" fill="#592913"/>
<path d="M13.6816 9.93173H14.186V11.9113H13.7955L13.0972 10.9161V11.9113H12.5901V9.93173H12.9833L13.6816 10.927V9.93173Z" fill="#592913"/>
<path d="M7.20992 11.0178L6.90213 11.0693L7.06349 10.5229L7.21128 11.0178H7.20992ZM6.72858 9.93173L6.09131 11.9317H6.64451L6.71773 11.689L6.75977 11.548L7.34551 11.4422L7.43093 11.7025L7.50686 11.9317H8.03295L7.37127 9.93173H6.72722H6.72858Z" fill="#592913"/>
<path d="M4.36375 8.41177L3.80919 8.51076V8.35483V7.67688H3.30615V9.64564H3.80919V8.96362L4.36375 8.86464V8.94057V9.64564H4.86408V7.67688H4.36375V8.41177Z" fill="#592913"/>
<path d="M6.51036 9.51005C6.36392 9.63615 6.17545 9.69988 5.94631 9.69988C5.71716 9.69988 5.52869 9.63615 5.38225 9.51005C5.23582 9.38395 5.1626 9.21582 5.1626 9.00701V7.67688H5.66835V8.9582C5.66835 9.12362 5.76055 9.20769 5.94495 9.20769C6.12935 9.20769 6.22155 9.12498 6.22155 8.9582V7.67688H6.7273V9.00701C6.7273 9.21582 6.65408 9.38395 6.50765 9.51005" fill="#592913"/>
<path d="M8.11152 7.67688H8.61455V9.65784H8.22405L7.52577 8.66126V9.65784H7.02002V7.67688H7.41323L8.11152 8.67346V7.67688Z" fill="#592913"/>
<path d="M10.8844 8.405L10.9169 8.60296C10.9644 8.88906 10.9128 9.13583 10.7623 9.34328C10.6118 9.55074 10.3935 9.67819 10.1074 9.72429C9.80237 9.77446 9.53525 9.71751 9.30746 9.5548C9.07832 9.3921 8.94137 9.16702 8.89392 8.88092C8.84646 8.59483 8.90476 8.33585 9.06747 8.10671C9.23018 7.87756 9.45661 7.73926 9.74406 7.6918C9.92575 7.66197 10.1007 7.67553 10.2647 7.73248C10.4301 7.78943 10.5657 7.87892 10.6742 8.00095L10.2905 8.31416C10.2417 8.25857 10.1766 8.21925 10.0939 8.19484C10.0125 8.17043 9.9244 8.16501 9.82948 8.18128C9.67491 8.20704 9.55695 8.27755 9.47424 8.39416C9.39153 8.51076 9.36441 8.64771 9.39017 8.80364C9.41458 8.95414 9.48509 9.07346 9.60034 9.16159C9.71559 9.24973 9.86067 9.27956 10.0383 9.24973C10.2647 9.21176 10.4017 9.10193 10.4451 8.91889L9.9705 8.99753L9.89999 8.56771L10.8857 8.405H10.8844Z" fill="#592913"/>
<path d="M11.6015 9.26602H12.3689V9.74058H11.0957V7.76097H12.354V8.23282H11.6015V8.50671H12.2835V8.9745H11.6015V9.26602Z" fill="#592913"/>
<path d="M13.0835 8.22743V8.71826L13.3547 8.68436C13.4035 8.68165 13.4767 8.65453 13.5161 8.6125C13.5554 8.57047 13.5757 8.51759 13.5757 8.45115C13.5757 8.38471 13.5554 8.33183 13.5161 8.2898C13.4767 8.24777 13.4252 8.22743 13.3628 8.22743H13.0822H13.0835ZM13.6096 9.74061L13.2639 9.10062L13.0822 9.13045V9.73925H12.5764V7.75964H13.3683C13.5703 7.75964 13.7398 7.82473 13.8754 7.95354C14.0123 8.08235 14.0801 8.24641 14.0801 8.44437C14.0801 8.56369 14.0503 8.67216 13.9893 8.77114C13.9282 8.87012 13.8469 8.94876 13.7425 9.00707L14.1493 9.73925H13.6055L13.6096 9.74061Z" fill="#592913"/>
</svg>
