<svg width="20" height="21" viewBox="0 0 20 21" fill="none" xmlns="http://www.w3.org/2000/svg">
<path fill-rule="evenodd" clip-rule="evenodd" d="M10 2.41699C7.73679 2.41699 7.45301 2.42659 6.56417 2.46714C5.67718 2.5076 5.0714 2.64848 4.54134 2.8545C3.99335 3.06743 3.52862 3.35237 3.06531 3.81565C2.60204 4.27896 2.31709 4.74369 2.10416 5.29168C1.89814 5.82174 1.75726 6.42752 1.7168 7.3145C1.67625 8.20334 1.66666 8.48713 1.66666 10.7503C1.66666 13.0135 1.67625 13.2973 1.7168 14.1861C1.75726 15.0731 1.89814 15.6789 2.10416 16.209C2.31709 16.757 2.60204 17.2217 3.06531 17.685C3.52862 18.1483 3.99335 18.4332 4.54134 18.6462C5.0714 18.8522 5.67718 18.9931 6.56417 19.0335C7.45301 19.0741 7.73679 19.0837 10 19.0837C12.2632 19.0837 12.547 19.0741 13.4358 19.0335C14.3228 18.9931 14.9286 18.8522 15.4586 18.6462C16.0066 18.4332 16.4714 18.1483 16.9347 17.685C17.3979 17.2217 17.6829 16.757 17.8959 16.209C18.1018 15.6789 18.2427 15.0731 18.2832 14.1861C18.3237 13.2973 18.3333 13.0135 18.3333 10.7503C18.3333 8.48713 18.3237 8.20334 18.2832 7.3145C18.2427 6.42752 18.1018 5.82174 17.8959 5.29168C17.6829 4.74369 17.3979 4.27896 16.9347 3.81565C16.4714 3.35237 16.0066 3.06743 15.4586 2.8545C14.9286 2.64848 14.3228 2.5076 13.4358 2.46714C12.547 2.42659 12.2632 2.41699 10 2.41699ZM10 3.91849C12.2251 3.91849 12.4887 3.92699 13.3674 3.96708C14.1799 4.00413 14.6211 4.13989 14.9148 4.25401C15.3037 4.40519 15.5813 4.58577 15.8729 4.87739C16.1646 5.16899 16.3451 5.44659 16.4963 5.83556C16.6104 6.12921 16.7462 6.57045 16.7832 7.38294C16.8233 8.26166 16.8318 8.52524 16.8318 10.7503C16.8318 12.9754 16.8233 13.239 16.7832 14.1177C16.7462 14.9302 16.6104 15.3714 16.4963 15.6651C16.3451 16.0541 16.1646 16.3317 15.8729 16.6233C15.5813 16.9149 15.3037 17.0955 14.9148 17.2466C14.6211 17.3608 14.1799 17.4965 13.3674 17.5336C12.4888 17.5737 12.2252 17.5822 10 17.5822C7.77473 17.5822 7.51123 17.5737 6.63261 17.5336C5.82012 17.4965 5.37887 17.3608 5.08523 17.2466C4.69625 17.0955 4.41865 16.9149 4.12706 16.6233C3.83546 16.3317 3.65485 16.0541 3.50368 15.6651C3.38955 15.3714 3.2538 14.9302 3.21675 14.1177C3.17666 13.239 3.16816 12.9754 3.16816 10.7503C3.16816 8.52524 3.17666 8.26166 3.21675 7.38294C3.2538 6.57045 3.38955 6.12921 3.50368 5.83556C3.65485 5.44659 3.83543 5.16899 4.12706 4.87739C4.41865 4.58577 4.69625 4.40519 5.08523 4.25401C5.37887 4.13989 5.82012 4.00413 6.63261 3.96708C7.51132 3.92699 7.7749 3.91849 10 3.91849ZM9.9999 13.5284C8.46576 13.5284 7.22211 12.2848 7.22211 10.7506C7.22211 9.2165 8.46576 7.97285 9.9999 7.97285C11.534 7.97285 12.7777 9.2165 12.7777 10.7506C12.7777 12.2848 11.534 13.5284 9.9999 13.5284ZM9.9999 6.47135C7.63649 6.47135 5.72061 8.38724 5.72061 10.7506C5.72061 13.114 7.63649 15.0299 9.9999 15.0299C12.3633 15.0299 14.2792 13.114 14.2792 10.7506C14.2792 8.38724 12.3633 6.47135 9.9999 6.47135ZM14.4485 7.30111C15.0008 7.30111 15.4485 6.85342 15.4485 6.30112C15.4485 5.74883 15.0008 5.30111 14.4485 5.30111C13.8962 5.30111 13.4485 5.74883 13.4485 6.30112C13.4485 6.85342 13.8962 7.30111 14.4485 7.30111Z" fill="url(#paint0_radial_64_5370)"/>
<defs>
<radialGradient id="paint0_radial_64_5370" cx="0" cy="0" r="1" gradientUnits="userSpaceOnUse" gradientTransform="translate(0.277329 18.7362) rotate(1.21888) scale(32.6566 32.6566)">
<stop offset="0.0692198" stop-color="#FFDD55"/>
<stop offset="0.348687" stop-color="#FF543F"/>
<stop offset="0.459085" stop-color="#E80027"/>
<stop offset="0.504" stop-color="#E80027"/>
<stop offset="0.610753" stop-color="#C1009D"/>
<stop offset="0.761" stop-color="#C0009E"/>
<stop offset="0.83379" stop-color="#C20099"/>
</radialGradient>
</defs>
</svg>
