<svg width="20" height="21" viewBox="0 0 20 21" fill="none" xmlns="http://www.w3.org/2000/svg">
<path d="M15.9644 7.95128C15.9735 8.08351 15.9735 8.21575 15.9735 8.34921C15.9735 12.4156 12.8778 17.1055 7.21725 17.1055V17.103C5.54509 17.1055 3.90768 16.6265 2.5 15.7234C2.74314 15.7526 2.98751 15.7672 3.23248 15.7679C4.61822 15.7691 5.96435 15.3041 7.05454 14.4479C5.73766 14.4229 4.58288 13.5643 4.17946 12.3108C4.64077 12.3998 5.11609 12.3815 5.56886 12.2578C4.13315 11.9677 3.10024 10.7063 3.10024 9.24135C3.10024 9.22794 3.10024 9.21514 3.10024 9.20234C3.52803 9.44061 4.00701 9.57285 4.49695 9.58748C3.14473 8.68376 2.72791 6.88486 3.54449 5.4784C5.10695 7.401 7.41225 8.5698 9.88696 8.69351C9.63894 7.62465 9.97776 6.5046 10.7773 5.75323C12.0168 4.58808 13.9662 4.6478 15.1313 5.88668C15.8205 5.75079 16.4811 5.4979 17.0856 5.13958C16.8559 5.85195 16.3751 6.45707 15.7328 6.84159C16.3428 6.76968 16.9388 6.60637 17.5 6.35713C17.0868 6.97626 16.5664 7.51557 15.9644 7.95128Z" fill="#1DA1F2"/>
</svg>
