<svg width="22" height="24" viewBox="0 0 22 24" fill="none" xmlns="http://www.w3.org/2000/svg">
<path d="M18.2409 12.7635C18.254 11.8436 18.5243 10.9417 19.0267 10.1416C19.529 9.34155 20.2471 8.66934 21.114 8.18753C20.5633 7.4765 19.8367 6.89135 18.992 6.47856C18.1473 6.06577 17.2078 5.8367 16.2481 5.80956C14.2008 5.6153 12.216 6.91698 11.1727 6.91698C10.1093 6.91698 8.503 5.82885 6.77331 5.86102C5.6545 5.89369 4.56413 6.18779 3.60844 6.71466C2.65275 7.24152 1.86433 7.98319 1.32001 8.86739C-1.03789 12.5577 0.720886 17.9811 2.97956 20.9641C4.10962 22.4247 5.43033 24.0563 7.15846 23.9985C8.84954 23.9351 9.48113 23.0237 11.5224 23.0237C13.5447 23.0237 14.1373 23.9985 15.9005 23.9617C17.7151 23.9351 18.8584 22.4945 19.9488 21.02C20.7607 19.9793 21.3855 18.829 21.8 17.6118C20.7458 17.2087 19.8461 16.5341 19.2132 15.6719C18.5803 14.8097 18.2422 13.7982 18.2409 12.7635Z" fill="#333B4A"/>
<path d="M14.9104 3.847C15.8998 2.77333 16.3873 1.3933 16.2692 0C14.7576 0.143515 13.3614 0.796572 12.3586 1.82905C11.8683 2.33344 11.4928 2.92024 11.2535 3.55589C11.0143 4.19155 10.916 4.8636 10.9642 5.53362C11.7203 5.54066 12.4682 5.39252 13.1518 5.10037C13.8353 4.80822 14.4366 4.37967 14.9104 3.847Z" fill="#333B4A"/>
</svg>
