<svg width="18" height="19" viewBox="0 0 18 19" fill="none" xmlns="http://www.w3.org/2000/svg">
<rect x="1.45776" y="2.12975" width="14.5763" height="14.5763" rx="7.28814" fill="#E21A2D"/>
<path d="M6.11767 10.0069C5.86691 10.0069 5.64136 9.78138 5.64136 9.53061C5.64136 9.27985 5.86691 9.0543 6.11767 9.0543C6.36844 9.0543 6.59399 9.27985 6.59399 9.53061C6.59819 9.78138 6.40066 10.0069 6.11767 10.0069Z" fill="#F5A800"/>
<path d="M7.83228 10.6513V7.4474H8.36743V8.6564C8.50892 8.46027 8.76109 8.29216 9.09871 8.29216C9.34948 8.29216 9.54701 8.37622 9.71792 8.54293C9.88604 8.71104 9.96869 8.93659 9.96869 9.24479V10.6499H9.40832V9.38629C9.40832 8.99263 9.21219 8.7965 8.90258 8.7965C8.56356 8.7965 8.34221 9.04726 8.34221 9.41571V10.6527L7.83228 10.6485V10.6513Z" fill="white"/>
<path d="M10.8682 9.30503H12.1052C12.0506 8.99543 11.825 8.76988 11.5154 8.76988C11.1764 8.76988 10.9509 8.96601 10.8682 9.30503ZM12.6376 9.69869H10.8934C10.9775 10.0083 11.203 10.2338 11.5953 10.2338C11.8755 10.2338 12.1305 10.1498 12.3518 10.0083L12.5773 10.402C12.2972 10.6275 11.9581 10.7116 11.5659 10.7116C10.6959 10.7116 10.3289 10.1218 10.3289 9.50256C10.3289 9.16354 10.4423 8.85534 10.6679 8.63259C10.8934 8.40704 11.1736 8.29356 11.5379 8.29356C11.8769 8.29356 12.1571 8.40704 12.3532 8.60317C12.5787 8.7993 12.6628 9.07948 12.6628 9.44793C12.6376 9.53198 12.6376 9.61604 12.6376 9.69869Z" fill="white"/>
<path d="M13.733 10.203H14.9406V10.6513H12.9751V10.2871L14.1547 8.8273H13.0297V8.3762H14.9126V8.74324L13.733 10.203Z" fill="white"/>
<path d="M4.54595 8.37623H3.421V8.9366H4.01079V10.2283C4.01079 10.6219 3.78524 10.8755 3.421 10.8755C3.19545 10.8755 2.99932 10.7914 2.83121 10.5953L2.55103 11.017C2.80179 11.2677 3.1114 11.3812 3.47984 11.3812C3.81887 11.3812 4.06963 11.2972 4.26576 11.101C4.46189 10.9049 4.57537 10.6247 4.57537 10.2563V8.90999V8.37483H4.54595V8.37623Z" fill="white"/>
<path d="M6.87827 8.37625V8.57238C6.68214 8.40426 6.42998 8.32161 6.14699 8.32161C5.47314 8.32161 4.93799 8.85676 4.93799 9.53061C4.93799 10.2045 5.47314 10.7396 6.14699 10.7396C6.42717 10.7396 6.68214 10.6556 6.87827 10.4888V10.685H7.38401V8.37765H6.87827V8.37625ZM6.11757 10.2577C5.69589 10.2577 5.38629 9.91867 5.38629 9.52641C5.38629 9.10473 5.72531 8.79512 6.11757 8.79512C6.53925 8.79512 6.84885 9.13415 6.84885 9.52641C6.84885 9.91867 6.53925 10.2577 6.11757 10.2577Z" fill="white"/>
</svg>
