<svg width="174" height="40" viewBox="0 0 174 40" fill="none" xmlns="http://www.w3.org/2000/svg">
<path fill-rule="evenodd" clip-rule="evenodd" d="M19.2172 3.7059C20.2018 2.7647 21.7982 2.7647 22.7828 3.7059L28.1312 8.81879C29.1158 9.75999 29.1158 11.2861 28.1312 12.2273L22.7828 17.3402C21.7982 18.2814 20.2018 18.2814 19.2172 17.3402L13.8688 12.2273C12.8842 11.2861 12.8842 9.75999 13.8688 8.81879L19.2172 3.7059ZM5.84616 25.0095C8.3077 27.3627 12.2986 27.3627 14.7602 25.0095C17.2217 22.6564 17.2217 18.8413 14.7602 16.4881C12.2986 14.135 8.3077 14.135 5.84616 16.4881C3.38461 18.8413 3.38461 22.6564 5.84616 25.0095ZM27.2398 25.0095C29.7014 27.3627 33.6923 27.3627 36.1538 25.0095C38.6154 22.6564 38.6154 18.8413 36.1538 16.4881C33.6923 14.135 29.7014 14.135 27.2398 16.4881C24.7783 18.8413 24.7783 22.6564 27.2398 25.0095ZM25.457 26.7138C22.9955 24.3606 19.0045 24.3606 16.543 26.7138C14.0814 29.0669 14.0814 32.882 16.543 35.2351C19.0045 37.5883 22.9955 37.5883 25.457 35.2351C27.9185 32.882 27.9185 29.0669 25.457 26.7138Z" fill="#141807"/>
<path d="M44 13.2397V9.79541H61.9868V13.2397H55.2818V29.554H50.7049V13.2397H44Z" fill="black"/>
<path d="M62.2543 29.554V14.7351H66.6708V17.3206H66.8419C67.1413 16.4009 67.6439 15.7063 68.3497 15.2367C69.0555 14.7608 69.8682 14.5228 70.7879 14.5228C71.016 14.5228 71.262 14.5357 71.5257 14.5614C71.7895 14.5871 72.0212 14.6225 72.2208 14.6675V18.3144C72.007 18.2565 71.7111 18.205 71.3333 18.16C70.9554 18.115 70.6097 18.0925 70.296 18.0925C69.6258 18.0925 69.027 18.2243 68.4994 18.488C67.979 18.7453 67.5655 19.1055 67.259 19.5686C66.9595 20.0317 66.8098 20.5655 66.8098 21.1701V29.554H62.2543Z" fill="black"/>
<path d="M80.3937 29.8434C78.7041 29.8434 77.2498 29.5347 76.0307 28.9172C74.8187 28.2933 73.8848 27.4122 73.2289 26.2737C72.5731 25.1289 72.2451 23.775 72.2451 22.212C72.2451 20.6877 72.5731 19.3499 73.2289 18.1986C73.8848 17.0473 74.808 16.1501 75.9986 15.5069C77.1963 14.8637 78.6007 14.5421 80.2119 14.5421C81.2955 14.5421 82.3043 14.6997 83.2382 15.0148C84.1793 15.3236 84.9991 15.7899 85.6978 16.4138C86.4035 17.0376 86.9525 17.8223 87.3446 18.7678C87.7367 19.7069 87.9327 20.8067 87.9327 22.0673V23.1291H74.063V20.6491H83.6446C83.6446 20.0574 83.502 19.5332 83.2168 19.0765C82.9317 18.6199 82.536 18.2629 82.0298 18.0056C81.5308 17.7419 80.9498 17.6101 80.2868 17.6101C79.5952 17.6101 78.9821 17.7548 78.4474 18.0442C77.9199 18.3272 77.5064 18.7099 77.207 19.1923C76.9076 19.6683 76.7543 20.1989 76.7472 20.7842V23.1388C76.7472 23.872 76.8969 24.5725 77.1963 25.1064C77.5028 25.6402 77.9342 26.0518 78.4902 26.3413C79.0463 26.6307 79.7057 26.7754 80.4686 26.7754C80.9747 26.7754 81.4381 26.7111 81.8587 26.5825C82.2794 26.4538 82.6394 26.2609 82.9388 26.0036C83.2382 25.7463 83.4663 25.4312 83.6232 25.0581L87.8973 25.1484C87.6834 26.0617 87.1842 27.0198 86.5212 27.7016C85.8653 28.377 85.0169 28.9044 83.9761 29.2838C82.9424 29.6569 81.7482 29.8434 80.3937 29.8434Z" fill="black"/>
<path d="M97.4878 29.8434C95.7982 29.8434 94.3438 29.5347 93.1247 28.9172C91.9128 28.2933 90.9789 27.4122 90.323 26.2737C89.6671 25.1289 89.3392 23.775 89.3392 22.212C89.3392 20.6877 89.6671 19.3499 90.323 18.1986C90.9789 17.0473 91.9021 16.1501 93.0927 15.5069C94.2903 14.8637 95.6948 14.5421 97.306 14.5421C98.3896 14.5421 99.3984 14.6997 100.332 15.0148C101.273 15.3236 102.093 15.7899 102.792 16.4138C103.498 17.0376 104.047 17.8223 104.439 18.7678C104.831 19.7069 105.027 20.8067 105.027 22.0673V23.1291H91.1571V20.6491H100.739C100.739 20.0574 100.596 19.5332 100.311 19.0765C100.026 18.6199 99.6301 18.2629 99.1239 18.0056C98.6249 17.7419 98.0438 17.6101 97.3808 17.6101C96.6893 17.6101 96.0762 17.7548 95.5415 18.0442C95.014 18.3272 94.6005 18.7099 94.301 19.1923C94.0016 19.6683 93.8483 20.1989 93.8412 20.7842V23.1388C93.8412 23.872 93.9909 24.5725 94.2903 25.1064C94.5969 25.6402 95.0282 26.0518 95.5843 26.3413C96.1404 26.6307 96.7998 26.7754 97.5626 26.7754C98.0688 26.7754 98.5322 26.7111 98.9528 26.5825C99.3734 26.4538 99.7334 26.2609 100.033 26.0036C100.332 25.7463 100.56 25.4312 100.717 25.0581L104.989 25.1484C104.775 26.0617 104.278 27.0198 103.615 27.7016C102.959 28.377 102.111 28.9044 101.07 29.2838C100.036 29.6569 98.8423 29.8434 97.4878 29.8434Z" fill="black"/>
<path d="M107.096 35.1111V14.7351H111.588V17.2242H111.791C111.99 16.8254 112.279 16.4202 112.657 16.0086C113.042 15.5905 113.541 15.2432 114.154 14.9666C114.774 14.6836 115.544 14.5421 116.464 14.5421C117.662 14.5421 118.767 14.8251 119.779 15.3911C120.791 15.9507 121.6 16.7965 122.206 17.9285C122.812 19.054 123.115 20.4658 123.115 22.1638C123.115 23.8168 122.82 25.2125 122.228 26.3509C121.643 27.4829 120.845 28.3416 119.832 28.9269C118.827 29.5057 117.701 29.7952 116.453 29.7952C115.569 29.7952 114.817 29.6633 114.197 29.3996C113.584 29.1359 113.081 28.8047 112.689 28.4059C112.297 28.0007 111.998 27.5923 111.791 27.1806H111.652V35.1111H107.096ZM111.556 22.1445C111.556 23.0257 111.691 23.7943 111.962 24.4503C112.233 25.1064 112.625 25.6177 113.138 25.9843C113.651 26.3445 114.275 26.5246 115.01 26.5246C115.751 26.5246 116.378 26.3413 116.892 25.9747C117.405 25.6016 117.793 25.0871 118.057 24.431C118.328 23.7685 118.464 23.0064 118.464 22.1445C118.464 21.2891 118.332 20.5366 118.068 19.8869C117.804 19.2373 117.416 18.7292 116.902 18.3626C116.389 17.996 115.758 17.8127 115.01 17.8127C114.268 17.8127 113.641 17.9896 113.127 18.3433C112.621 18.6971 112.233 19.1987 111.962 19.8484C111.691 20.498 111.556 21.2634 111.556 22.1445Z" fill="black"/>
<path d="M125.249 29.554V14.7351H129.804V29.554H125.249ZM127.537 12.8248C126.86 12.8248 126.279 12.6222 125.794 12.217C125.317 11.8054 125.078 11.3133 125.078 10.7409C125.078 10.1749 125.317 9.68929 125.794 9.28408C126.279 8.87244 126.86 8.66663 127.537 8.66663C128.215 8.66663 128.792 8.87244 129.27 9.28408C129.755 9.68929 129.997 10.1749 129.997 10.7409C129.997 11.3133 129.755 11.8054 129.27 12.217C128.792 12.6222 128.215 12.8248 127.537 12.8248Z" fill="black"/>
<path d="M170 9.79541V29.554H165.444V9.79541H170Z" fill="black"/>
<path d="M155.866 29.8434C154.176 29.8434 152.722 29.5347 151.503 28.9172C150.291 28.2933 149.357 27.4122 148.701 26.2737C148.045 25.1289 147.717 23.775 147.717 22.212C147.717 20.6877 148.045 19.3499 148.701 18.1986C149.357 17.0473 150.28 16.1501 151.471 15.5069C152.668 14.8637 154.073 14.5421 155.684 14.5421C156.768 14.5421 157.776 14.6997 158.71 15.0148C159.651 15.3236 160.471 15.7899 161.17 16.4138C161.876 17.0376 162.425 17.8223 162.817 18.7678C163.209 19.7069 163.405 20.8067 163.405 22.0673V23.1291H149.535V20.6491H159.117C159.117 20.0574 158.974 19.5332 158.689 19.0765C158.404 18.6199 158.008 18.2629 157.502 18.0056C157.003 17.7419 156.422 17.6101 155.759 17.6101C155.067 17.6101 154.454 17.7548 153.919 18.0442C153.392 18.3272 152.978 18.7099 152.679 19.1923C152.38 19.6683 152.226 20.1989 152.219 20.7842V23.1388C152.219 23.872 152.369 24.5725 152.668 25.1064C152.975 25.6402 153.406 26.0518 153.962 26.3413C154.518 26.6307 155.178 26.7754 155.941 26.7754C156.447 26.7754 156.91 26.7111 157.331 26.5825C157.751 26.4538 158.111 26.2609 158.411 26.0036C158.71 25.7463 158.938 25.4312 159.095 25.0581L163.367 25.1484C163.153 26.0617 162.656 27.0198 161.993 27.7016C161.337 28.377 160.489 28.9044 159.448 29.2838C158.414 29.6569 157.22 29.8434 155.866 29.8434Z" fill="black"/>
<path d="M136.323 14.8686L139.985 20.0027L143.648 14.8686H149.141L143.076 22.2113L149.141 29.554H143.745L139.985 24.4772L136.288 29.554H130.829L136.895 22.2113L130.829 14.8686H136.323Z" fill="black"/>
</svg>
