<svg width="91" height="24" viewBox="0 0 91 24" fill="none" xmlns="http://www.w3.org/2000/svg">
<path fill-rule="evenodd" clip-rule="evenodd" d="M11.5823 3.17972C11.813 2.94009 12.187 2.94009 12.4176 3.17972L15.7772 6.67001C16.0078 6.90964 16.0078 7.29816 15.7772 7.53779L12.4176 11.0281C12.187 11.2677 11.813 11.2677 11.5823 11.0281L8.22279 7.53779C7.99214 7.29816 7.99214 6.90964 8.22279 6.67001L11.5823 3.17972ZM4.86878 14.5126C6.02715 15.716 7.90524 15.716 9.06361 14.5126C10.222 13.3091 10.222 11.358 9.06361 10.1545C7.90524 8.95106 6.02715 8.95106 4.86878 10.1545C3.71041 11.358 3.71041 13.3091 4.86878 14.5126ZM14.9364 14.5126C16.0948 15.716 17.9729 15.716 19.1312 14.5126C20.2896 13.3091 20.2896 11.358 19.1312 10.1545C17.9729 8.95106 16.0948 8.95106 14.9364 10.1545C13.778 11.358 13.778 13.3091 14.9364 14.5126ZM13.5139 14.7781C12.6778 13.9094 11.3222 13.9094 10.486 14.7781L9.3191 15.9904C8.48297 16.8591 8.48297 18.2675 9.3191 19.1362L10.486 20.3485C11.3222 21.2172 12.6778 21.2172 13.5139 20.3485L14.6809 19.1362C15.517 18.2675 15.517 16.8591 14.6809 15.9904L13.5139 14.7781Z" fill="#141807"/>
<path d="M24 8.42101V6.59759H32.9934V8.42101H29.6409V17.058H27.3525V8.42101H24Z" fill="black"/>
<path d="M33.1272 17.058V9.2127H35.3354V10.5815H35.421C35.5707 10.0946 35.822 9.72686 36.1749 9.47829C36.5278 9.22632 36.9341 9.10033 37.3939 9.10033C37.508 9.10033 37.631 9.10714 37.7629 9.12076C37.8948 9.13438 38.0106 9.15311 38.1104 9.17694V11.1076C38.0035 11.077 37.8556 11.0497 37.6666 11.0259C37.4777 11.0021 37.3048 10.9901 37.148 10.9901C36.8129 10.9901 36.5135 11.06 36.2497 11.1996C35.9895 11.3358 35.7828 11.5265 35.6295 11.7716C35.4798 12.0168 35.4049 12.2994 35.4049 12.6195V17.058H33.1272Z" fill="black"/>
<path d="M42.1968 17.2112C41.352 17.2112 40.6249 17.0478 40.0153 16.7209C39.4094 16.3906 38.9424 15.9241 38.6145 15.3214C38.2865 14.7153 38.1226 13.9985 38.1226 13.1711C38.1226 12.3641 38.2865 11.6558 38.6145 11.0463C38.9424 10.4368 39.404 9.96181 39.9993 9.62131C40.5981 9.2808 41.3004 9.11054 42.106 9.11054C42.6478 9.11054 43.1522 9.19397 43.6191 9.36082C44.0896 9.52426 44.4996 9.77113 44.8489 10.1014C45.2018 10.4317 45.4762 10.8471 45.6723 11.3477C45.8683 11.8448 45.9664 12.4271 45.9664 13.0945V13.6566H39.0315V12.3437H43.8223C43.8223 12.0304 43.751 11.7529 43.6084 11.5111C43.4658 11.2694 43.268 11.0804 43.0149 10.9442C42.7654 10.8046 42.4749 10.7348 42.1434 10.7348C41.7976 10.7348 41.4911 10.8114 41.2237 10.9646C40.9599 11.1144 40.7532 11.317 40.6035 11.5724C40.4538 11.8244 40.3771 12.1053 40.3736 12.4152V13.6617C40.3736 14.0499 40.4484 14.4208 40.5981 14.7034C40.7514 14.986 40.9671 15.2039 41.2451 15.3572C41.5231 15.5104 41.8529 15.587 42.2343 15.587C42.4874 15.587 42.7191 15.553 42.9294 15.4849C43.1397 15.4168 43.3197 15.3146 43.4694 15.1784C43.6191 15.0422 43.7332 14.8753 43.8116 14.6779L45.9486 14.7256C45.8417 15.2092 45.5921 15.7164 45.2606 16.0773C44.9326 16.4349 44.5085 16.7141 43.988 16.915C43.4712 17.1125 42.8741 17.2112 42.1968 17.2112Z" fill="black"/>
<path d="M50.7439 17.2112C49.8991 17.2112 49.1719 17.0478 48.5624 16.7209C47.9564 16.3906 47.4894 15.9241 47.1615 15.3214C46.8336 14.7153 46.6696 13.9985 46.6696 13.1711C46.6696 12.3641 46.8336 11.6558 47.1615 11.0463C47.4894 10.4368 47.951 9.96181 48.5463 9.62131C49.1452 9.2808 49.8474 9.11054 50.653 9.11054C51.1948 9.11054 51.6992 9.19397 52.1661 9.36082C52.6367 9.52426 53.0466 9.77113 53.3959 10.1014C53.7488 10.4317 54.0233 10.8471 54.2193 11.3477C54.4154 11.8448 54.5134 12.4271 54.5134 13.0945V13.6566H47.5785V12.3437H52.3693C52.3693 12.0304 52.298 11.7529 52.1554 11.5111C52.0129 11.2694 51.815 11.0804 51.5619 10.9442C51.3124 10.8046 51.0219 10.7348 50.6904 10.7348C50.3446 10.7348 50.0381 10.8114 49.7708 10.9646C49.507 11.1144 49.3002 11.317 49.1505 11.5724C49.0008 11.8244 48.9242 12.1053 48.9206 12.4152V13.6617C48.9206 14.0499 48.9955 14.4208 49.1452 14.7034C49.2985 14.986 49.5141 15.2039 49.7921 15.3572C50.0702 15.5104 50.3999 15.587 50.7813 15.587C51.0344 15.587 51.2661 15.553 51.4764 15.4849C51.6867 15.4168 51.8667 15.3146 52.0164 15.1784C52.1661 15.0422 52.2802 14.8753 52.3586 14.6779L54.4943 14.7256C54.3874 15.2092 54.1391 15.7164 53.8076 16.0773C53.4797 16.4349 53.0555 16.7141 52.5351 16.915C52.0182 17.1125 51.4211 17.2112 50.7439 17.2112Z" fill="black"/>
<path d="M55.5481 20V9.2127H57.7938V10.5305H57.8954C57.9952 10.3193 58.1396 10.1048 58.3285 9.8869C58.521 9.66557 58.7705 9.4817 59.077 9.33528C59.3872 9.18546 59.7721 9.11054 60.232 9.11054C60.8308 9.11054 61.3833 9.26037 61.8895 9.56001C62.3956 9.85626 62.8002 10.304 63.1032 10.9033C63.4062 11.4992 63.5577 12.2466 63.5577 13.1456C63.5577 14.0207 63.4098 14.7596 63.1139 15.3623C62.8216 15.9616 62.4224 16.4161 61.9162 16.726C61.4136 17.0325 60.8504 17.1857 60.2266 17.1857C59.7846 17.1857 59.4085 17.1159 59.0984 16.9763C58.7919 16.8367 58.5406 16.6613 58.3445 16.4502C58.1485 16.2357 57.9988 16.0195 57.8954 15.8015H57.8259V20H55.5481ZM57.7778 13.1354C57.7778 13.6018 57.8455 14.0088 57.9809 14.3561C58.1164 14.7034 58.3124 14.9741 58.5691 15.1682C58.8257 15.3589 59.1376 15.4542 59.5048 15.4542C59.8755 15.4542 60.1892 15.3572 60.4458 15.1631C60.7025 14.9656 60.8967 14.6932 61.0286 14.3459C61.1641 13.9951 61.2318 13.5916 61.2318 13.1354C61.2318 12.6825 61.1659 12.2841 61.034 11.9402C60.9021 11.5963 60.7078 11.3273 60.4512 11.1332C60.1945 10.9391 59.8791 10.842 59.5048 10.842C59.1341 10.842 58.8204 10.9357 58.5637 11.1229C58.3107 11.3102 58.1164 11.5758 57.9809 11.9197C57.8455 12.2637 57.7778 12.6689 57.7778 13.1354Z" fill="black"/>
<path d="M64.6245 17.058V9.2127H66.9022V17.058H64.6245ZM65.7687 8.20139C65.4301 8.20139 65.1396 8.09413 64.8972 7.87961C64.6584 7.66168 64.5389 7.40119 64.5389 7.09814C64.5389 6.79849 64.6584 6.54141 64.8972 6.32689C65.1396 6.10896 65.4301 6 65.7687 6C66.1073 6 66.3961 6.10896 66.6349 6.32689C66.8773 6.54141 66.9985 6.79849 66.9985 7.09814C66.9985 7.40119 66.8773 7.66168 66.6349 7.87961C66.3961 8.09413 66.1073 8.20139 65.7687 8.20139Z" fill="black"/>
<path d="M87 6.59759V17.058H84.7222V6.59759H87Z" fill="black"/>
<path d="M79.9329 17.2112C79.0881 17.2112 78.3609 17.0478 77.7514 16.7209C77.1454 16.3906 76.6784 15.9241 76.3505 15.3214C76.0225 14.7153 75.8586 13.9985 75.8586 13.1711C75.8586 12.3641 76.0225 11.6558 76.3505 11.0463C76.6784 10.4368 77.14 9.96181 77.7353 9.62131C78.3342 9.2808 79.0364 9.11054 79.842 9.11054C80.3838 9.11054 80.8882 9.19397 81.3551 9.36082C81.8256 9.52426 82.2356 9.77113 82.5849 10.1014C82.9378 10.4317 83.2123 10.8471 83.4083 11.3477C83.6044 11.8448 83.7024 12.4271 83.7024 13.0945V13.6566H76.7675V12.3437H81.5583C81.5583 12.0304 81.487 11.7529 81.3444 11.5111C81.2018 11.2694 81.004 11.0804 80.7509 10.9442C80.5014 10.8046 80.2109 10.7348 79.8794 10.7348C79.5336 10.7348 79.2271 10.8114 78.9597 10.9646C78.696 11.1144 78.4892 11.317 78.3395 11.5724C78.1898 11.8244 78.1132 12.1053 78.1096 12.4152V13.6617C78.1096 14.0499 78.1844 14.4208 78.3342 14.7034C78.4874 14.986 78.7031 15.2039 78.9811 15.3572C79.2592 15.5104 79.5889 15.587 79.9703 15.587C80.2234 15.587 80.4551 15.553 80.6654 15.4849C80.8757 15.4168 81.0557 15.3146 81.2054 15.1784C81.3551 15.0422 81.4692 14.8753 81.5476 14.6779L83.6833 14.7256C83.5764 15.2092 83.3281 15.7164 82.9966 16.0773C82.6687 16.4349 82.2445 16.7141 81.7241 16.915C81.2072 17.1125 80.6101 17.2112 79.9329 17.2112Z" fill="black"/>
<path d="M70.1614 9.28339L71.9927 12.0015L73.8239 9.28339H76.5707L73.5378 13.1707L76.5707 17.058H73.8723L71.9927 14.3703L70.1441 17.058H67.4146L70.4476 13.1707L67.4146 9.28339H70.1614Z" fill="black"/>
</svg>
