<svg width="122" height="32" viewBox="0 0 122 32" fill="none" xmlns="http://www.w3.org/2000/svg">
<path fill-rule="evenodd" clip-rule="evenodd" d="M14.8814 4.4706C15.4992 3.84313 16.5009 3.84313 17.1187 4.4706L20.4745 7.87919C21.0923 8.50666 21.0923 9.52406 20.4745 10.1515L17.1187 13.5601C16.5009 14.1876 15.4992 14.1876 14.8814 13.5601L11.5255 10.1515C10.9077 9.52406 10.9077 8.50666 11.5255 7.87919L14.8814 4.4706ZM6.49175 18.673C8.03624 20.2418 10.5404 20.2418 12.0849 18.673C13.6294 17.1042 13.6294 14.5608 12.0849 12.9921C10.5404 11.4233 8.03624 11.4233 6.49175 12.9921C4.94725 14.5608 4.94725 17.1042 6.49175 18.673ZM19.9152 18.673C21.4597 20.2418 23.9638 20.2418 25.5083 18.673C27.0528 17.1042 27.0528 14.5608 25.5083 12.9921C23.9638 11.4233 21.4597 11.4233 19.9152 12.9921C18.3707 14.5608 18.3707 17.1042 19.9152 18.673ZM18.7966 19.8092C17.2521 18.2404 14.748 18.2404 13.2035 19.8092C11.659 21.3779 11.659 23.9213 13.2035 25.4901C14.748 27.0589 17.2521 27.0589 18.7966 25.4901C20.3411 23.9213 20.3411 21.3779 18.7966 19.8092Z" fill="#C4FF57"/>
<path d="M32 11.228V8.79679H43.9912V11.228H39.5212V22.744H36.47V11.228H32Z" fill="#C4FF57"/>
<path d="M44.1696 22.744V12.2836H47.1139V14.1087H47.2279C47.4276 13.4595 47.7626 12.9692 48.2332 12.6377C48.7037 12.3018 49.2455 12.1338 49.8586 12.1338C50.0107 12.1338 50.1746 12.1429 50.3505 12.161C50.5264 12.1792 50.6808 12.2041 50.8139 12.2359V14.8102C50.6713 14.7693 50.4741 14.733 50.2222 14.7012C49.9703 14.6694 49.7398 14.6535 49.5307 14.6535C49.0839 14.6535 48.6847 14.7466 48.333 14.9328C47.986 15.1144 47.7103 15.3686 47.506 15.6955C47.3064 16.0224 47.2066 16.3992 47.2066 16.826V22.744H44.1696Z" fill="#C4FF57"/>
<path d="M56.2625 22.9483C55.1361 22.9483 54.1665 22.7304 53.3538 22.2945C52.5458 21.8541 51.9232 21.2322 51.486 20.4286C51.0487 19.6204 50.8301 18.6647 50.8301 17.5615C50.8301 16.4855 51.0487 15.5411 51.486 14.7284C51.9232 13.9158 52.5387 13.2824 53.3324 12.8284C54.1309 12.3744 55.0671 12.1474 56.1413 12.1474C56.8637 12.1474 57.5362 12.2586 58.1588 12.4811C58.7862 12.699 59.3327 13.0282 59.7985 13.4686C60.269 13.909 60.635 14.4628 60.8964 15.1302C61.1578 15.7931 61.2885 16.5695 61.2885 17.4593V18.2088H52.042V16.4582H58.4297C58.4297 16.0405 58.3347 15.6705 58.1446 15.3482C57.9544 15.0258 57.6907 14.7738 57.3532 14.5922C57.0205 14.4061 56.6332 14.313 56.1912 14.313C55.7302 14.313 55.3214 14.4152 54.965 14.6195C54.6133 14.8192 54.3376 15.0894 54.138 15.4299C53.9384 15.7659 53.8362 16.1404 53.8314 16.5536V18.2156C53.8314 18.7332 53.9312 19.2277 54.1309 19.6045C54.3352 19.9814 54.6228 20.2719 54.9935 20.4762C55.3642 20.6805 55.8038 20.7827 56.3124 20.7827C56.6498 20.7827 56.9587 20.7373 57.2392 20.6465C57.5196 20.5557 57.7596 20.4195 57.9592 20.2379C58.1588 20.0563 58.3109 19.8338 58.4155 19.5705L61.2648 19.6342C61.1223 20.2789 60.7895 20.9552 60.3475 21.4365C59.9102 21.9132 59.3446 22.2855 58.6507 22.5533C57.9616 22.8167 57.1655 22.9483 56.2625 22.9483Z" fill="#C4FF57"/>
<path d="M67.6585 22.9483C66.5321 22.9483 65.5625 22.7304 64.7498 22.2945C63.9419 21.8541 63.3193 21.2322 62.882 20.4286C62.4447 19.6204 62.2261 18.6647 62.2261 17.5615C62.2261 16.4855 62.4447 15.5411 62.882 14.7284C63.3193 13.9158 63.9347 13.2824 64.7284 12.8284C65.5269 12.3744 66.4632 12.1474 67.5373 12.1474C68.2597 12.1474 68.9322 12.2586 69.5549 12.4811C70.1822 12.699 70.7288 13.0282 71.1945 13.4686C71.6651 13.909 72.031 14.4628 72.2924 15.1302C72.5538 15.7931 72.6845 16.5695 72.6845 17.4593V18.2088H63.4381V16.4582H69.8258C69.8258 16.0405 69.7307 15.6705 69.5406 15.3482C69.3505 15.0258 69.0867 14.7738 68.7493 14.5922C68.4166 14.4061 68.0292 14.313 67.5872 14.313C67.1262 14.313 66.7175 14.4152 66.361 14.6195C66.0093 14.8192 65.7336 15.0894 65.534 15.4299C65.3344 15.7659 65.2322 16.1404 65.2275 16.5536V18.2156C65.2275 18.7332 65.3273 19.2277 65.5269 19.6045C65.7313 19.9814 66.0188 20.2719 66.3895 20.4762C66.7602 20.6805 67.1999 20.7827 67.7084 20.7827C68.0459 20.7827 68.3548 20.7373 68.6352 20.6465C68.9156 20.5557 69.1556 20.4195 69.3552 20.2379C69.5549 20.0563 69.7069 19.8338 69.8115 19.5705L72.6591 19.6342C72.5165 20.2789 72.1855 20.9552 71.7435 21.4365C71.3062 21.9132 70.7407 22.2855 70.0468 22.5533C69.3576 22.8167 68.5615 22.9483 67.6585 22.9483Z" fill="#C4FF57"/>
<path d="M74.0642 26.6667V12.2836H77.0584V14.0406H77.1938C77.3269 13.7591 77.5194 13.4731 77.7713 13.1825C78.028 12.8874 78.3606 12.6423 78.7694 12.447C79.1829 12.2473 79.6962 12.1474 80.3093 12.1474C81.1077 12.1474 81.8444 12.3472 82.5193 12.7467C83.1942 13.1417 83.7336 13.7387 84.1376 14.5378C84.5416 15.3323 84.7436 16.3288 84.7436 17.5274C84.7436 18.6942 84.5463 19.6794 84.1519 20.483C83.7621 21.2821 83.2298 21.8882 82.5549 22.3013C81.8848 22.71 81.1339 22.9143 80.3021 22.9143C79.7128 22.9143 79.2114 22.8212 78.7979 22.635C78.3892 22.4489 78.0541 22.2151 77.7927 21.9336C77.5313 21.6476 77.3317 21.3593 77.1938 21.0687H77.1012V26.6667H74.0642ZM77.037 17.5138C77.037 18.1358 77.1273 18.6783 77.3079 19.1414C77.4885 19.6045 77.7499 19.9655 78.0921 20.2242C78.4343 20.4785 78.8502 20.6056 79.3397 20.6056C79.834 20.6056 80.2522 20.4762 80.5944 20.2174C80.9366 19.9541 81.1957 19.5909 81.3715 19.1278C81.5521 18.6602 81.6424 18.1222 81.6424 17.5138C81.6424 16.91 81.5545 16.3788 81.3786 15.9202C81.2028 15.4617 80.9438 15.103 80.6016 14.8442C80.2594 14.5854 79.8388 14.456 79.3397 14.456C78.8454 14.456 78.4272 14.5809 78.085 14.8306C77.7475 15.0803 77.4885 15.4344 77.3079 15.893C77.1273 16.3515 77.037 16.8918 77.037 17.5138Z" fill="#C4FF57"/>
<path d="M86.166 22.744V12.2836H89.203V22.744H86.166ZM87.6916 10.9352C87.2401 10.9352 86.8528 10.7922 86.5296 10.5061C86.2111 10.2156 86.0519 9.86826 86.0519 9.46419C86.0519 9.06466 86.2111 8.72188 86.5296 8.43585C86.8528 8.14528 87.2401 8 87.6916 8C88.1431 8 88.5281 8.14528 88.8465 8.43585C89.1697 8.72188 89.3313 9.06466 89.3313 9.46419C89.3313 9.86826 89.1697 10.2156 88.8465 10.5061C88.5281 10.7922 88.1431 10.9352 87.6916 10.9352Z" fill="#C4FF57"/>
<path d="M116 8.79679V22.744H112.963V8.79679H116Z" fill="#C4FF57"/>
<path d="M106.577 22.9483C105.451 22.9483 104.481 22.7304 103.668 22.2945C102.861 21.8541 102.238 21.2322 101.801 20.4286C101.363 19.6204 101.145 18.6647 101.145 17.5615C101.145 16.4855 101.363 15.5411 101.801 14.7284C102.238 13.9158 102.853 13.2824 103.647 12.8284C104.446 12.3744 105.382 12.1474 106.456 12.1474C107.178 12.1474 107.851 12.2586 108.474 12.4811C109.101 12.699 109.647 13.0282 110.113 13.4686C110.584 13.909 110.95 14.4628 111.211 15.1302C111.472 15.7931 111.603 16.5695 111.603 17.4593V18.2088H102.357V16.4582H108.744C108.744 16.0405 108.649 15.6705 108.459 15.3482C108.269 15.0258 108.005 14.7738 107.668 14.5922C107.335 14.4061 106.948 14.313 106.506 14.313C106.045 14.313 105.636 14.4152 105.28 14.6195C104.928 14.8192 104.652 15.0894 104.453 15.4299C104.253 15.7659 104.151 16.1404 104.146 16.5536V18.2156C104.146 18.7332 104.246 19.2277 104.446 19.6045C104.65 19.9814 104.937 20.2719 105.308 20.4762C105.679 20.6805 106.119 20.7827 106.627 20.7827C106.965 20.7827 107.273 20.7373 107.554 20.6465C107.834 20.5557 108.074 20.4195 108.274 20.2379C108.473 20.0563 108.626 19.8338 108.73 19.5705L111.578 19.6342C111.435 20.2789 111.104 20.9552 110.662 21.4365C110.225 21.9132 109.659 22.2855 108.965 22.5533C108.276 22.8167 107.48 22.9483 106.577 22.9483Z" fill="#C4FF57"/>
<path d="M93.5486 12.3778L95.9902 16.002L98.4318 12.3778H102.094L98.0503 17.5609L102.094 22.744H98.4964L95.9902 19.1604L93.5254 22.744H89.8861L93.9301 17.5609L89.8861 12.3778H93.5486Z" fill="#C4FF57"/>
</svg>
