<svg width="32" height="32" viewBox="0 0 32 32" fill="none" xmlns="http://www.w3.org/2000/svg">
<path fill-rule="evenodd" clip-rule="evenodd" d="M14.8814 5.80385C15.4992 5.17639 16.5008 5.17639 17.1186 5.80385L20.4745 9.21244C21.0923 9.83991 21.0923 10.8573 20.4745 11.4848L17.1186 14.8934C16.5008 15.5208 15.4992 15.5208 14.8814 14.8934L11.5255 11.4848C10.9077 10.8573 10.9077 9.83991 11.5255 9.21244L14.8814 5.80385ZM6.49169 20.0063C8.03618 21.575 10.5403 21.575 12.0848 20.0063C13.6293 18.4375 13.6293 15.8941 12.0848 14.3253C10.5403 12.7566 8.03618 12.7566 6.49169 14.3253C4.94719 15.8941 4.94719 18.4375 6.49169 20.0063ZM19.9152 20.0063C21.4597 21.575 23.9638 21.575 25.5083 20.0063C27.0528 18.4375 27.0528 15.8941 25.5083 14.3253C23.9638 12.7566 21.4597 12.7566 19.9152 14.3253C18.3707 15.8941 18.3707 18.4375 19.9152 20.0063ZM18.7965 21.1424C17.252 19.5737 14.7479 19.5737 13.2034 21.1424C11.6589 22.7112 11.6589 25.2546 13.2034 26.8233C14.7479 28.3921 17.252 28.3921 18.7965 26.8233C20.341 25.2546 20.341 22.7112 18.7965 21.1424Z" fill="#C4FF57"/>
</svg>
