<svg width="18" height="18" viewBox="0 0 18 18" fill="none" xmlns="http://www.w3.org/2000/svg">
<rect x="1.45776" y="1.85387" width="14.5763" height="14.5763" rx="7.28814" fill="url(#paint0_linear_166_11113)"/>
<path fill-rule="evenodd" clip-rule="evenodd" d="M5.95609 6.68668C5.95609 6.44048 6.15862 6.2409 6.40845 6.2409C6.65829 6.2409 6.86082 6.44048 6.86082 6.68668C6.86082 6.93288 6.65829 7.13246 6.40845 7.13246C6.15862 7.13246 5.95609 6.93288 5.95609 6.68668ZM6.40845 5.49793C5.74223 5.49793 5.20214 6.03015 5.20214 6.68668C5.20214 7.09174 5.40773 7.44948 5.72169 7.6641C5.77954 7.70365 5.80988 7.77403 5.7902 7.84065L5.39182 9.18875C5.37403 9.24893 5.31961 9.29061 5.25683 9.30072C4.75544 9.38145 4.3728 9.81029 4.3728 10.3272C4.3728 10.9017 4.84538 11.3674 5.42833 11.3674C6.01128 11.3674 6.48385 10.9017 6.48385 10.3272C6.48385 9.98201 6.3132 9.67608 6.05051 9.48688C5.9942 9.44633 5.9645 9.37666 5.984 9.31067L6.38047 7.96903C6.39686 7.91357 6.44853 7.87616 6.50696 7.87151V7.87151C6.56785 7.86666 6.62714 7.89798 6.65093 7.95341L8.04225 11.1941C8.06856 11.2554 8.04948 11.3257 8.00159 11.3726C7.80924 11.561 7.69016 11.822 7.69016 12.1103C7.69016 12.6848 8.16273 13.1505 8.74568 13.1505C9.32863 13.1505 9.80121 12.6848 9.80121 12.1103C9.80121 11.8227 9.68274 11.5624 9.49127 11.3741C9.44325 11.3268 9.42437 11.2561 9.45123 11.1947L10.8741 7.94304C10.8947 7.89591 10.9448 7.86883 10.9968 7.87243V7.87243C11.0479 7.87598 11.0931 7.90877 11.1074 7.95725L11.5074 9.31068C11.5269 9.37667 11.4972 9.44634 11.4409 9.48689C11.1782 9.67609 11.0075 9.98201 11.0075 10.3272C11.0075 10.9017 11.4801 11.3674 12.063 11.3674C12.646 11.3674 13.1186 10.9017 13.1186 10.3272C13.1186 9.81029 12.7359 9.38144 12.2345 9.30071C12.1717 9.29061 12.1173 9.24893 12.0995 9.18875L11.7012 7.84066C11.6815 7.77404 11.7118 7.70366 11.7697 7.66411C12.0836 7.44949 12.2892 7.09174 12.2892 6.68668C12.2892 6.03015 11.7491 5.49793 11.0829 5.49793C10.4167 5.49793 9.8766 6.03015 9.8766 6.68668C9.8766 7.03107 10.0252 7.34125 10.2627 7.55835C10.3135 7.60477 10.3336 7.67712 10.3062 7.7398L8.88692 10.9832C8.86301 11.0379 8.80605 11.0702 8.74568 11.0702V11.0702V11.0702C8.68621 11.0702 8.63019 11.0381 8.60701 10.9841L7.20545 7.71955C7.17912 7.65823 7.19812 7.58781 7.2467 7.54153C7.47365 7.32538 7.61477 7.02227 7.61477 6.68668C7.61477 6.03015 7.07468 5.49793 6.40845 5.49793ZM11.0829 6.2409C10.8331 6.2409 10.6305 6.44048 10.6305 6.68668C10.6305 6.93288 10.8331 7.13246 11.0829 7.13246C11.3327 7.13246 11.5353 6.93288 11.5353 6.68668C11.5353 6.44048 11.3327 6.2409 11.0829 6.2409ZM11.6107 10.3272C11.6107 10.081 11.8132 9.88143 12.063 9.88143C12.3129 9.88143 12.5154 10.081 12.5154 10.3272C12.5154 10.5734 12.3129 10.773 12.063 10.773C11.8132 10.773 11.6107 10.5734 11.6107 10.3272ZM8.29332 12.1103C8.29332 11.8641 8.49585 11.6645 8.74568 11.6645C8.99552 11.6645 9.19805 11.8641 9.19805 12.1103C9.19805 12.3565 8.99552 12.5561 8.74568 12.5561C8.49585 12.5561 8.29332 12.3565 8.29332 12.1103ZM5.42833 9.88143C5.17849 9.88143 4.97596 10.081 4.97596 10.3272C4.97596 10.5734 5.17849 10.773 5.42833 10.773C5.67816 10.773 5.88069 10.5734 5.88069 10.3272C5.88069 10.081 5.67816 9.88143 5.42833 9.88143Z" fill="white"/>
<defs>
<linearGradient id="paint0_linear_166_11113" x1="1.45776" y1="1.85387" x2="16.034" y2="16.4301" gradientUnits="userSpaceOnUse">
<stop stop-color="#0BC06A"/>
<stop offset="1" stop-color="#F1CC06"/>
</linearGradient>
</defs>
</svg>
