<svg width="48" height="48" viewBox="0 0 48 48" fill="none" xmlns="http://www.w3.org/2000/svg">
<rect width="48" height="48" rx="16" fill="url(#paint0_radial_1208_4167)"/>
<g clip-path="url(#clip0_1208_4167)">
<path d="M33.1954 10.7973C31.7585 9.17758 29.161 8.48315 25.838 8.48315H16.1937C15.865 8.48317 15.547 8.59917 15.2969 8.8103C15.0469 9.02144 14.8812 9.31386 14.8297 9.63499L10.814 34.8224C10.7342 35.319 11.1231 35.7688 11.6321 35.7688H17.5861L19.0814 26.389L19.035 26.6827C19.1416 26.0197 19.7149 25.5306 20.3939 25.5306H23.2232C28.7815 25.5306 33.1337 23.298 34.405 16.8392C34.4427 16.6482 34.4754 16.4623 34.5037 16.2807C34.3432 16.1966 34.3432 16.1966 34.5037 16.2807C34.8823 13.8935 34.5011 12.2685 33.1954 10.7973Z" fill="#27346A"/>
<path d="M21.3597 15.4207C21.5225 15.3441 21.7005 15.3043 21.8808 15.3044H29.4417C30.337 15.3044 31.1721 15.3621 31.9352 15.4835C32.1488 15.5172 32.3612 15.5574 32.5723 15.6041C32.8713 15.6693 33.167 15.7492 33.4581 15.8434C33.8333 15.9674 34.1827 16.1117 34.5038 16.2807C34.8823 13.8925 34.5011 12.2685 33.1954 10.7973C31.7577 9.17758 29.161 8.48315 25.838 8.48315H16.1929C15.5138 8.48315 14.9361 8.97208 14.8297 9.63499L10.814 34.8214C10.7342 35.3189 11.1231 35.7681 11.6313 35.7681H17.5861L20.6884 16.3121C20.7189 16.1208 20.796 15.9398 20.9129 15.7845C21.0298 15.6292 21.1831 15.5044 21.3597 15.4207Z" fill="#27346A"/>
<path d="M34.4051 16.8389C33.1337 23.2967 28.7817 25.5303 23.2233 25.5303H20.3932C19.7142 25.5303 19.1407 26.0193 19.0352 26.6823L17.1749 38.345C17.1054 38.7797 17.4453 39.1735 17.89 39.1735H22.9091C23.1966 39.1735 23.4747 39.072 23.6932 38.8872C23.9118 38.7025 24.0566 38.4468 24.1015 38.1659L24.1504 37.913L25.0964 31.9839L25.1573 31.6562C25.2023 31.3754 25.347 31.1196 25.5656 30.9349C25.7841 30.7502 26.0622 30.6487 26.3497 30.6486H27.1008C31.9629 30.6486 35.7699 28.6951 36.8824 23.0455C37.3468 20.6845 37.1065 18.7133 35.8781 17.3287C35.5055 16.9093 35.0428 16.563 34.5038 16.2803C34.4746 16.4628 34.4429 16.6478 34.4051 16.8389Z" fill="#2790C3"/>
<path d="M33.1731 15.7561C32.9748 15.6989 32.7747 15.6482 32.5731 15.6042C32.362 15.5583 32.1495 15.5183 31.9361 15.4845C31.1721 15.3622 30.3376 15.3044 29.4415 15.3044H21.8815C21.7011 15.304 21.5229 15.3441 21.3604 15.4216C21.1837 15.5051 21.0302 15.6298 20.9132 15.7852C20.7962 15.9405 20.7193 16.1216 20.6891 16.313L19.0822 26.3891L19.0358 26.6828C19.1415 26.0198 19.7148 25.5308 20.3939 25.5308H23.2241C28.7823 25.5308 33.1344 23.2981 34.4057 16.8393C34.4436 16.6483 34.4753 16.4632 34.5045 16.2808C34.1826 16.1127 33.8341 15.9675 33.4588 15.8444C33.3641 15.8133 33.2689 15.7839 33.1732 15.7561" fill="#1F264F"/>
</g>
<defs>
<radialGradient id="paint0_radial_1208_4167" cx="0" cy="0" r="1" gradientUnits="userSpaceOnUse" gradientTransform="translate(14.4029 13.9228) rotate(47.7464) scale(46.0523)">
<stop stop-color="white"/>
<stop offset="0.810915" stop-color="#E4ECEF"/>
</radialGradient>
<clipPath id="clip0_1208_4167">
<rect width="26.4" height="30.8" fill="white" transform="translate(10.8 8.3999)"/>
</clipPath>
</defs>
</svg>
