<svg width="12" height="12" viewBox="0 0 12 12" fill="none" xmlns="http://www.w3.org/2000/svg">
<path d="M11.0001 6.99961H7.0001V10.9996C7.0001 11.4396 6.6401 11.7996 6.2001 11.7996C5.7601 11.7996 5.4001 11.4396 5.4001 10.9996V6.99961H1.4001C0.960098 6.99961 0.600098 6.63961 0.600098 6.19961C0.600098 5.75961 0.960098 5.39961 1.4001 5.39961H5.4001V1.39961C5.4001 0.959609 5.7601 0.599609 6.2001 0.599609C6.6401 0.599609 7.0001 0.959609 7.0001 1.39961V5.39961H11.0001C11.4401 5.39961 11.8001 5.75961 11.8001 6.19961C11.8001 6.63961 11.4401 6.99961 11.0001 6.99961Z" fill="#6F7582"/>
</svg>
