<svg width="48" height="48" viewBox="0 0 48 48" fill="none" xmlns="http://www.w3.org/2000/svg">
<rect width="48" height="48" rx="16" fill="url(#paint0_linear_1208_4194)"/>
<path d="M40.7479 30.4094L39.108 17.0909C38.667 13.5051 35.5383 10.8 31.8306 10.8H16.1678C12.4601 10.8 9.33138 13.5051 8.89021 17.0909L7.252 30.4094C7.00278 32.4351 7.65631 34.4725 9.047 35.9985C10.436 37.5255 12.4347 38.4001 14.5296 38.4001H33.4705C35.5635 38.4001 37.5624 37.5255 38.9531 35.9985C40.3419 34.4729 40.9973 32.4355 40.7479 30.4094ZM36.2558 33.6839C35.5114 34.501 34.4843 34.9504 33.3648 34.9504H14.6357C13.5145 34.9504 12.487 34.501 11.7448 33.6839C11.0004 32.867 10.6655 31.8205 10.7982 30.7361L12.418 17.567C12.6506 15.6773 14.3003 14.2498 16.2555 14.2498H31.7433C33.6979 14.2498 35.3482 15.6768 35.5807 17.567L37.2022 30.7361C37.335 31.8205 36.9979 32.867 36.2558 33.6839Z" fill="#004956"/>
<path d="M33.4101 26.3212C33.1522 25.9362 32.7561 25.672 32.2944 25.5774C31.8318 25.4826 31.3607 25.5689 30.9654 25.8197C26.2495 28.816 21.66 28.8156 16.9352 25.8193C16.5398 25.5685 16.0675 25.4822 15.6062 25.5778C15.1444 25.6728 14.7488 25.9374 14.4913 26.3225C14.2339 26.7076 14.1457 27.1674 14.2434 27.6172C14.3409 28.0671 14.6125 28.4525 15.0078 28.7033C17.9604 30.5759 20.9705 31.5252 23.9543 31.5252C26.9387 31.5252 29.9465 30.5755 32.8949 28.7025C33.2901 28.4513 33.5612 28.0654 33.6584 27.6156C33.7561 27.1662 33.6679 26.7064 33.4101 26.3212Z" fill="#004956"/>
<defs>
<linearGradient id="paint0_linear_1208_4194" x1="-16.5633" y1="-20.164" x2="45.3691" y2="48.0096" gradientUnits="userSpaceOnUse">
<stop stop-color="#B7F4E5"/>
<stop offset="0.810915" stop-color="#E4ECEF"/>
</linearGradient>
</defs>
</svg>
