<svg width="48" height="48" viewBox="0 0 48 48" fill="none" xmlns="http://www.w3.org/2000/svg">
<rect width="48" height="48" rx="16" fill="url(#paint0_radial_1208_4195)"/>
<g clip-path="url(#clip0_1208_4195)">
<path d="M34.7747 12.5981C34.7521 12.4301 34.6082 12.3371 34.4893 12.3269C33.6124 12.2595 32.7356 12.1926 31.8587 12.1263C31.8587 12.1263 30.1141 10.3548 29.9227 10.1588C29.7311 9.96281 29.3569 10.0224 29.2117 10.0661C29.1903 10.0726 28.8305 10.1862 28.2354 10.3745C27.6526 8.65932 26.6242 7.08311 24.8148 7.08311C24.7649 7.08311 24.7135 7.08518 24.662 7.08817C24.1475 6.39212 23.51 6.08972 22.9595 6.08972C18.7447 6.08972 16.731 11.479 16.0997 14.2176C14.4619 14.7367 13.2984 15.1057 13.1498 15.1534C12.2356 15.4467 12.2067 15.4762 12.0867 16.3573C11.9963 17.0243 9.60437 35.9449 9.60437 35.9449L28.2431 39.5169L38.3423 37.2823C38.3423 37.2823 34.7969 12.7661 34.7747 12.5981ZM27.2052 10.7004L25.6281 11.1997C25.6286 11.086 25.6292 10.9741 25.6292 10.8518C25.6292 9.78584 25.4845 8.92754 25.2524 8.24714C26.1847 8.36681 26.8056 9.45179 27.2052 10.7004ZM24.0959 8.45852C24.3551 9.12281 24.5237 10.0762 24.5237 11.3626C24.5237 11.4284 24.5231 11.4886 24.5225 11.5495C23.4969 11.8744 22.3823 12.2272 21.2653 12.5812C21.8925 10.1054 23.0681 8.90959 24.0959 8.45852ZM22.8437 7.24604C23.0256 7.24604 23.2089 7.30922 23.3843 7.43269C22.0335 8.08282 20.5856 9.72025 19.9742 12.9901L17.3995 13.8058C18.1157 11.3116 19.8163 7.24604 22.8437 7.24604Z" fill="#95BF46"/>
<path d="M34.4891 12.3267C33.6123 12.2593 32.7354 12.1924 31.8585 12.1261C31.8585 12.1261 30.114 10.3546 29.9225 10.1586C29.8508 10.0856 29.7542 10.0482 29.6532 10.0321L28.2439 39.5164L38.3421 37.282C38.3421 37.282 34.7968 12.7659 34.7745 12.5979C34.7519 12.4299 34.608 12.3369 34.4891 12.3267Z" fill="#5E8E3E"/>
<path d="M24.8147 18.0344L23.5694 21.8232C23.5694 21.8232 22.4784 21.2276 21.141 21.2276C19.1804 21.2276 19.0817 22.4861 19.0817 22.8032C19.0817 24.5336 23.4917 25.1967 23.4917 29.2498C23.4917 32.4387 21.5143 34.4921 18.848 34.4921C15.6485 34.4921 14.0123 32.4554 14.0123 32.4554L14.869 29.5603C14.869 29.5603 16.5509 31.0372 17.9701 31.0372C18.8974 31.0372 19.2746 30.2904 19.2746 29.7447C19.2746 27.4876 15.6566 27.3869 15.6566 23.6779C15.6566 20.5562 17.8472 17.5353 22.2692 17.5353C23.973 17.5353 24.8147 18.0344 24.8147 18.0344Z" fill="white"/>
</g>
<defs>
<radialGradient id="paint0_radial_1208_4195" cx="0" cy="0" r="1" gradientUnits="userSpaceOnUse" gradientTransform="translate(14.4029 13.9228) rotate(47.7464) scale(46.0523)">
<stop stop-color="white"/>
<stop offset="0.810915" stop-color="#E4ECEF"/>
</radialGradient>
<clipPath id="clip0_1208_4195">
<rect width="28.8" height="33.6" fill="white" transform="translate(9.59998 6)"/>
</clipPath>
</defs>
</svg>
