<svg width="48" height="48" viewBox="0 0 48 48" fill="none" xmlns="http://www.w3.org/2000/svg">
<rect width="48" height="48" rx="16" fill="#FF0000"/>
<path d="M35.9621 17.421C35.8561 17.0062 35.653 16.6227 35.3696 16.3019C35.0862 15.9811 34.7305 15.7323 34.332 15.576C30.4755 14.0865 24.3375 14.1 24 14.1C23.6625 14.1 17.5245 14.0865 13.668 15.576C13.2695 15.7323 12.9138 15.9811 12.6304 16.3019C12.347 16.6227 12.1439 17.0062 12.0379 17.421C11.7465 18.5437 11.4 20.5957 11.4 24C11.4 27.4042 11.7465 29.4562 12.0379 30.579C12.1437 30.9939 12.3467 31.3777 12.6302 31.6987C12.9136 32.0197 13.2693 32.2687 13.668 32.4251C17.3625 33.8505 23.145 33.9 23.9257 33.9H24.0742C24.855 33.9 30.6409 33.8505 34.332 32.4251C34.7306 32.2687 35.0864 32.0197 35.3698 31.6987C35.6533 31.3777 35.8563 30.9939 35.9621 30.579C36.2535 29.454 36.6 27.4042 36.6 24C36.6 20.5957 36.2535 18.5437 35.9621 17.421ZM27.8497 24.3746L22.4497 27.9746C22.382 28.0198 22.3032 28.0458 22.2218 28.0497C22.1404 28.0537 22.0594 28.0355 21.9876 27.997C21.9158 27.9585 21.8557 27.9013 21.8139 27.8314C21.772 27.7614 21.7499 27.6815 21.75 27.6V20.4C21.7499 20.3185 21.772 20.2385 21.8139 20.1686C21.8557 20.0987 21.9158 20.0414 21.9876 20.003C22.0594 19.9645 22.1404 19.9463 22.2218 19.9502C22.3032 19.9542 22.382 19.9801 22.4497 20.0254L27.8497 23.6254C27.9115 23.6664 27.9621 23.7221 27.9971 23.7875C28.0321 23.8528 28.0504 23.9258 28.0504 24C28.0504 24.0741 28.0321 24.1471 27.9971 24.2125C27.9621 24.2778 27.9115 24.3335 27.8497 24.3746Z" fill="white"/>
</svg>
