<svg width="48" height="48" viewBox="0 0 48 48" fill="none" xmlns="http://www.w3.org/2000/svg">
<rect width="48" height="48" rx="16" fill="#003462"/>
<path d="M10.257 10.8119C10.3082 10.8355 10.4337 10.8873 10.5592 10.9438C14.8599 13.0021 19.1605 15.0603 23.4565 17.1186C24.0284 17.3918 24.033 17.3965 23.6378 17.8816C21.9222 19.9776 20.1973 22.0641 18.4863 24.1648C18.2818 24.4191 18.1981 24.405 18.0168 24.1365C16.4964 21.838 14.9528 19.5584 13.4325 17.2599C12.1911 15.3806 10.973 13.4825 9.74559 11.5938C9.6433 11.4336 9.53172 11.2641 9.6526 11.0898C9.77348 10.9155 9.93621 10.7648 10.2617 10.8072L10.257 10.8119Z" fill="url(#paint0_linear_128_3716)"/>
<path d="M10.1222 38.3937C9.89434 38.3984 9.75021 38.2524 9.64792 38.0828C9.53169 37.885 9.65722 37.706 9.7688 37.5412C11.1962 35.3887 12.6281 33.2315 14.0508 31.0744C15.3759 29.0679 16.7056 27.0661 18.0167 25.0503C18.2074 24.7535 18.305 24.7582 18.5142 25.0267C19.3557 26.1289 20.2484 27.1839 21.1225 28.2578C21.9966 29.3269 22.8706 30.4008 23.7819 31.4417C24.0097 31.7008 24.0283 31.8185 23.6796 31.9834C21.2387 33.1279 18.8071 34.2866 16.3755 35.4499C14.4274 36.3825 12.4887 37.3245 10.5452 38.2618C10.4104 38.3278 10.2802 38.4125 10.1175 38.3984L10.1222 38.3937Z" fill="url(#paint1_linear_128_3716)"/>
<path d="M38.1437 24.1507C37.53 23.9387 36.9861 23.5761 36.4002 23.3029C34.0802 22.2149 31.7695 21.1174 29.4588 20.02C27.9896 19.3229 26.5297 18.607 25.0652 17.9052C24.9071 17.8299 24.7444 17.7027 24.577 17.9052C24.2376 18.3103 23.8656 18.6918 23.582 19.1439C23.0381 19.7939 22.4848 20.4392 21.9455 21.0892C21.0481 22.1725 20.1834 23.284 19.2395 24.3249C19.1094 24.4662 18.9699 24.6028 19.2395 24.7865C19.4069 24.8996 19.5185 25.1068 19.6533 25.2717C20.9644 26.8636 22.2802 28.4509 23.5913 30.0429C23.8517 30.3632 24.1446 30.6599 24.3585 31.0084C24.6328 31.4559 24.8978 31.4182 25.3302 31.211C29.0682 29.3929 32.8156 27.6078 36.563 25.8133C37.0651 25.5731 37.5719 25.3423 38.074 25.0974C38.2972 24.9891 38.4088 24.8148 38.3995 24.5463C38.3948 24.3485 38.3158 24.2119 38.1484 24.1554L38.1437 24.1507Z" fill="url(#paint2_linear_128_3716)"/>
<defs>
<linearGradient id="paint0_linear_128_3716" x1="15.548" y1="17.5755" x2="36.0515" y2="17.5755" gradientUnits="userSpaceOnUse">
<stop stop-color="#82BF75"/>
<stop offset="1" stop-color="#01BCEE"/>
</linearGradient>
<linearGradient id="paint1_linear_128_3716" x1="15.5479" y1="31.6113" x2="36.0515" y2="31.6113" gradientUnits="userSpaceOnUse">
<stop stop-color="#82BF75"/>
<stop offset="1" stop-color="#01BCEE"/>
</linearGradient>
<linearGradient id="paint2_linear_128_3716" x1="0.623593" y1="24.5699" x2="36.0515" y2="24.5699" gradientUnits="userSpaceOnUse">
<stop stop-color="#82BF75"/>
<stop offset="1" stop-color="#01BCEE"/>
</linearGradient>
</defs>
</svg>
