<svg width="48" height="48" viewBox="0 0 48 48" fill="none" xmlns="http://www.w3.org/2000/svg">
<rect width="48" height="48" rx="16" fill="#FFD300"/>
<path d="M43.0839 24.4397C43.2357 24.0825 43.2179 23.6717 43.0259 23.3234L42.182 21.8098C42.2847 21.6848 42.3829 21.5508 42.4677 21.4079C42.7892 20.8811 42.95 20.3006 42.95 19.6755C42.95 18.6798 42.5794 17.8002 41.8784 17.1394C41.1952 16.4965 40.3201 16.1571 39.3378 16.1571H31.7652C31.2561 16.1571 30.8186 16.4563 30.6176 16.8894C30.256 16.6259 29.8497 16.4116 29.4032 16.2553C28.662 16.0008 27.8761 15.9383 27.068 16.0723C26.233 16.2107 25.5097 16.5232 24.9025 17.0099C24.7328 16.5143 24.2595 16.1571 23.7058 16.1571H22.0493C21.5492 16.1571 21.1117 16.4473 20.9107 16.8715L20.7857 16.6929C20.5491 16.3536 20.1606 16.1526 19.7498 16.1526H15.7894C15.4322 16.1526 15.1063 16.3 14.8785 16.5411C14.6464 16.3 14.3249 16.1526 13.9677 16.1526H12.3022C12.1147 16.1526 11.4628 16.1705 11.2931 16.1705H9.64556C9.28836 16.1705 8.96242 16.3179 8.7347 16.559C8.50252 16.3179 8.18104 16.1705 7.82384 16.1705H6.16733C5.46633 16.1705 4.90374 16.7376 4.90374 17.4341V23.9173C4.90374 24.404 5.18057 24.8281 5.58242 25.038C5.24308 25.547 5.06448 26.1498 5.06448 26.8151C5.06448 27.6902 5.3547 28.3064 5.68511 28.7216L5.41721 28.8779C4.89034 29.186 4.6537 29.8289 4.86355 30.4004C5.14038 31.1595 5.62707 31.7712 6.31914 32.2177C6.9755 32.6419 7.78366 32.8562 8.71684 32.8562C9.75272 32.8562 10.6189 32.5838 11.3021 32.0436C11.5387 31.856 11.7396 31.6462 11.9049 31.4095V31.4497C11.9049 32.1507 12.4719 32.7133 13.1684 32.7133C13.1684 32.7133 15.4456 32.7312 15.6197 32.7312L17.4548 32.7222C18.013 32.7222 18.5086 32.3561 18.6693 31.8203L18.7542 31.5524L18.9461 31.5078L19.0846 31.7801C19.2587 32.2981 19.7409 32.7178 20.2856 32.7178L21.9868 32.758C22.1922 32.758 22.8352 32.7401 22.9825 32.7401L24.6792 32.7178C25.1659 32.7178 25.5856 32.4454 25.7999 32.0436C26.0142 32.4454 26.4339 32.7178 26.9206 32.7178H28.5861C29.1487 32.7178 29.6264 32.3472 29.7916 31.8382C30.6221 32.5124 31.6133 32.8562 32.7385 32.8562C33.7923 32.8562 34.7299 32.557 35.5291 31.9632C35.7256 32.4097 36.1676 32.7178 36.6856 32.7178H38.351C38.8511 32.7178 39.2842 32.4276 39.4896 32.0034L39.6146 32.182C39.8513 32.5213 40.2397 32.7222 40.6505 32.7222H41.9364C42.6374 32.7222 43.2 32.1552 43.2 31.4586V24.9398C43.2 24.7612 43.1643 24.5915 43.0973 24.4397" fill="white"/>
<path d="M8.31055 31.512C7.62294 31.512 7.05142 31.3647 6.59599 31.0745C6.14056 30.7842 5.82801 30.3869 5.64494 29.8912L7.06928 29.0607C7.31039 29.6367 7.73903 29.927 8.3552 29.927C8.86421 29.927 9.11871 29.7841 9.11871 29.4939C9.11871 29.3019 8.97136 29.15 8.67668 29.034C8.55166 28.9848 8.27929 28.8955 7.85958 28.775C7.26127 28.6009 6.79245 28.3597 6.44418 28.0427C6.09591 27.7302 5.92177 27.2926 5.92177 26.7345C5.92177 26.1317 6.13609 25.645 6.5692 25.2744C7.0023 24.9038 7.5381 24.7163 8.18553 24.7163C8.73026 24.7163 9.21694 24.8458 9.63665 25.0958C10.0608 25.3503 10.3823 25.7209 10.6056 26.2032L9.20801 27.0247C9.00262 26.5425 8.66328 26.2969 8.19446 26.2969C7.99353 26.2969 7.84619 26.3371 7.74349 26.4175C7.6408 26.4978 7.59168 26.6005 7.59168 26.7256C7.59168 26.8684 7.66759 26.989 7.8194 27.0917C7.97121 27.1899 8.2659 27.306 8.70793 27.44C9.01601 27.5516 9.27052 27.6409 9.46698 27.7123C9.66344 27.7838 9.87776 27.8954 10.1055 28.0472C10.3377 28.199 10.5073 28.3955 10.6189 28.6321C10.7306 28.8688 10.7886 29.15 10.7886 29.4715C10.7886 30.11 10.5609 30.6101 10.1099 30.9718C9.65451 31.3334 9.0562 31.512 8.31055 31.512Z" fill="#592913"/>
<path d="M16.218 24.712V26.3238H14.6062V31.2309H12.9363V26.3238H11.3289V24.712H16.218Z" fill="#592913"/>
<path d="M26.2598 24.712V26.3238H24.6524V31.2309H22.9825V26.3238H21.3751V24.712H26.2598Z" fill="#592913"/>
<path d="M26.6125 31.3022H28.2825V24.7833H26.6125V31.3022Z" fill="#592913"/>
<path d="M31.3946 29.4538C31.7294 29.7842 32.1491 29.9538 32.6537 29.9538C33.1582 29.9538 33.5735 29.7886 33.9128 29.4538C34.2477 29.1234 34.4174 28.6992 34.4174 28.1812C34.4174 27.6633 34.2477 27.2436 33.9128 26.9087C33.5779 26.5783 33.1582 26.4086 32.6537 26.4086C32.1491 26.4086 31.7339 26.5738 31.3946 26.9087C31.0597 27.2391 30.89 27.6633 30.89 28.1812C30.89 28.6992 31.0597 29.1189 31.3946 29.4538ZM35.0782 30.6013C34.4174 31.2576 33.6092 31.5836 32.6537 31.5836C31.6982 31.5836 30.89 31.2576 30.2292 30.6013C29.5684 29.9449 29.238 29.1412 29.238 28.1857C29.238 27.2302 29.5684 26.4265 30.2292 25.7701C30.89 25.1138 31.6982 24.7878 32.6537 24.7878C33.6092 24.7878 34.4174 25.1138 35.0782 25.7701C35.739 26.4265 36.0694 27.2302 36.0694 28.1857C36.0694 29.1412 35.739 29.9494 35.0782 30.6013Z" fill="#592913"/>
<path d="M40.2531 24.7833H41.9141V31.3022H40.6282L38.3287 28.0248V31.3022H36.6588V24.7833H37.9536L40.2531 28.0606V24.7833Z" fill="#592913"/>
<path d="M18.9417 28.3597L17.9282 28.5294L18.4595 26.73L18.9462 28.3597H18.9417ZM17.3566 24.7833L15.2581 31.3691H17.0798L17.3209 30.5699L17.4593 30.1055L19.3882 29.7573L19.6695 30.6145L19.9195 31.3691H21.652L19.473 24.7833H17.3522H17.3566Z" fill="#592913"/>
<path d="M9.56967 19.7781L7.74349 20.104V19.5905V17.358H6.08698V23.8412H7.74349V21.5953L9.56967 21.2694V21.5194V23.8412H11.2173V17.358H9.56967V19.7781Z" fill="#592913"/>
<path d="M16.6377 23.3947C16.1555 23.81 15.5349 24.0198 14.7803 24.0198C14.0257 24.0198 13.4051 23.81 12.9229 23.3947C12.4406 22.9795 12.1995 22.4258 12.1995 21.7382V17.358H13.865V21.5775C13.865 22.1222 14.1686 22.399 14.7758 22.399C15.3831 22.399 15.6867 22.1266 15.6867 21.5775V17.358H17.3521V21.7382C17.3521 22.4258 17.111 22.9795 16.6288 23.3947" fill="#592913"/>
<path d="M21.9109 17.358H23.5674V23.8814H22.2815L19.982 20.5996V23.8814H18.3166V17.358H19.6115L21.9109 20.6398V17.358Z" fill="#592913"/>
<path d="M31.0418 19.7557L31.149 20.4076C31.3052 21.3497 31.1356 22.1624 30.6399 22.8455C30.1443 23.5287 29.4255 23.9484 28.4834 24.1002C27.4787 24.2654 26.5991 24.0779 25.849 23.5421C25.0944 23.0063 24.6435 22.2651 24.4872 21.323C24.3309 20.3808 24.5229 19.528 25.0587 18.7734C25.5945 18.0189 26.3402 17.5634 27.2867 17.4072C27.885 17.3089 28.461 17.3536 29.0013 17.5411C29.546 17.7286 29.9925 18.0233 30.3497 18.4252L29.0861 19.4566C28.9254 19.2735 28.7111 19.144 28.4387 19.0637C28.1708 18.9833 27.8806 18.9654 27.568 19.019C27.059 19.1039 26.6706 19.336 26.3982 19.72C26.1258 20.104 26.0365 20.555 26.1214 21.0685C26.2017 21.5641 26.4339 21.957 26.8134 22.2472C27.193 22.5374 27.6707 22.6357 28.2556 22.5374C29.0013 22.4124 29.4523 22.0508 29.5951 21.448L28.0324 21.7069L27.8002 20.2915L31.0463 19.7557H31.0418Z" fill="#592913"/>
<path d="M33.4038 22.591H35.931V24.1538H31.7383V17.6349H35.8819V19.1887H33.4038V20.0906H35.6497V21.6311H33.4038V22.591Z" fill="#592913"/>
<path d="M38.284 19.171V20.7873L39.177 20.6757C39.3378 20.6668 39.5789 20.5775 39.7084 20.439C39.8379 20.3006 39.9048 20.1265 39.9048 19.9077C39.9048 19.6889 39.8379 19.5148 39.7084 19.3764C39.5789 19.238 39.4092 19.171 39.2038 19.171H38.2796H38.284ZM40.0165 24.1539L38.8779 22.0464L38.2796 22.1447V24.1494H36.6141V17.6306H39.2217C39.887 17.6306 40.4451 17.8449 40.8916 18.269C41.3426 18.6932 41.5658 19.2335 41.5658 19.8854C41.5658 20.2783 41.4676 20.6355 41.2667 20.9614C41.0657 21.2874 40.7978 21.5464 40.454 21.7384L41.7935 24.1494H40.0031L40.0165 24.1539Z" fill="#592913"/>
</svg>
