<svg width="48" height="48" viewBox="0 0 48 48" fill="none" xmlns="http://www.w3.org/2000/svg">
<rect width="48" height="48" rx="16" fill="url(#paint0_radial_128_3662)"/>
<path d="M21.6123 21.4726V20.5128C21.2806 20.4674 20.9463 20.4442 20.6114 20.4432C16.5248 20.4432 13.2 23.7054 13.2 27.7187C13.2002 28.8884 13.4878 30.0407 14.0384 31.0779C14.5889 32.1151 15.3863 33.0066 16.3627 33.6768C15.1292 32.3766 14.3966 30.6347 14.3966 28.7222C14.3944 26.8273 15.1486 25.007 16.4975 23.6517C17.8464 22.2964 19.6826 21.5141 21.6123 21.4726V21.4726Z" fill="#25F4EE"/>
<path d="M21.7856 32.0696C23.6091 32.0696 25.1224 30.6216 25.1885 28.8467L25.1941 13.0266L28.1165 13.0022C28.0538 12.6713 28.022 12.3354 28.0216 11.9988H23.9971L23.9907 27.8433C23.9709 28.4043 23.8064 28.9513 23.5125 29.4329C23.2186 29.9145 22.805 30.3149 22.3104 30.5967C21.8158 30.8784 21.2564 31.0323 20.6847 31.0438C20.113 31.0553 19.5477 30.9241 19.0417 30.6625C19.657 31.4977 20.6563 32.0696 21.7856 32.0696Z" fill="#25F4EE"/>
<path d="M33.6264 18.4072V17.5001C32.5428 17.5007 31.4826 17.1912 30.5754 16.6094C31.3577 17.4914 32.4214 18.1537 33.6264 18.4072Z" fill="#25F4EE"/>
<path d="M30.5754 16.6091C29.6866 15.6103 29.1972 14.3288 29.1978 13.0026H28.1169C28.2568 13.7357 28.5469 14.4334 28.9694 15.0533C29.392 15.6732 29.9384 16.2025 30.5754 16.6091V16.6091Z" fill="#FE2C55"/>
<path d="M20.6113 24.3954C19.8537 24.3945 19.1177 24.6432 18.5212 25.1017C17.9247 25.5601 17.5022 26.2019 17.3213 26.9241C17.1404 27.6464 17.2116 28.4073 17.5235 29.0851C17.8354 29.7629 18.37 30.3183 19.0416 30.6624C18.6765 30.1667 18.4581 29.5816 18.4105 28.9718C18.363 28.3619 18.4881 27.751 18.772 27.2065C19.0559 26.662 19.4876 26.2053 20.0195 25.8866C20.5513 25.5679 21.1624 25.3998 21.7855 25.4008C22.1244 25.4012 22.4612 25.4525 22.7843 25.5529V21.5165C22.4534 21.4706 22.1197 21.4469 21.7855 21.4453C21.727 21.4453 21.669 21.4485 21.6105 21.4496V24.5491C21.2873 24.4483 20.9504 24.3965 20.6113 24.3954V24.3954Z" fill="#FE2C55"/>
<path d="M33.6262 18.3806V21.4533C31.616 21.4557 29.656 20.8369 28.0239 19.6847V27.7187C28.0239 31.7312 24.6987 34.9958 20.6117 34.9958C19.0911 34.9969 17.6074 34.5361 16.3641 33.6767C17.0562 34.4094 17.895 34.9938 18.8279 35.3934C19.7608 35.793 20.7677 35.9991 21.7855 35.9988C25.8725 35.9988 29.1977 32.7366 29.1977 28.7221V20.6877C30.8298 21.8397 32.7898 22.4585 34.8 22.4563V18.5028C34.4054 18.5026 34.012 18.4617 33.6262 18.3806V18.3806Z" fill="#FE2C55"/>
<path d="M28.0242 27.7186V19.6842C29.6562 20.8364 31.6162 21.4552 33.6265 21.4528V18.3805C32.4411 18.1296 31.3705 17.508 30.5755 16.6091C29.9389 16.2023 29.3929 15.673 28.9707 15.0531C28.5484 14.4332 28.2587 13.7356 28.119 13.0026H25.171L25.1646 28.847C25.1398 29.539 24.895 30.206 24.4647 30.7545C24.0343 31.303 23.4399 31.7055 22.7648 31.9057C22.0897 32.1058 21.3677 32.0935 20.7 31.8705C20.0324 31.6475 19.4525 31.2249 19.0418 30.6621C18.3702 30.318 17.8357 29.7626 17.5237 29.0848C17.2118 28.407 17.1406 27.646 17.3215 26.9238C17.5024 26.2016 17.925 25.5598 18.5215 25.1013C19.118 24.6429 19.854 24.3942 20.6115 24.3951C20.9512 24.396 21.2887 24.4478 21.6124 24.5488V21.4493C17.6062 21.5413 14.3755 24.7669 14.3755 28.7205C14.3738 30.5605 15.0848 32.3323 16.3644 33.6767C17.6076 34.536 19.0911 34.9967 20.6115 34.9957C24.699 34.9957 28.0242 31.7311 28.0242 27.7186Z" fill="black"/>
<defs>
<radialGradient id="paint0_radial_128_3662" cx="0" cy="0" r="1" gradientUnits="userSpaceOnUse" gradientTransform="translate(14.4029 13.9228) rotate(47.7464) scale(46.0523)">
<stop stop-color="white"/>
<stop offset="0.810915" stop-color="#E4ECEF"/>
</radialGradient>
</defs>
</svg>
