<svg width="40" height="40" viewBox="0 0 40 40" fill="none" xmlns="http://www.w3.org/2000/svg">
<rect width="40" height="40" rx="16" fill="url(#paint0_radial_237_12234)"/>
<path d="M26.0341 20.6361C26.045 19.8696 26.2703 19.118 26.6889 18.4512C27.1075 17.7845 27.7059 17.2243 28.4283 16.8228C27.9694 16.2303 27.3639 15.7427 26.66 15.3987C25.9561 15.0547 25.1732 14.8638 24.3734 14.8412C22.6673 14.6793 21.0133 15.764 20.1439 15.764C19.2577 15.764 17.9191 14.8572 16.4777 14.8841C15.5454 14.9113 14.6368 15.1564 13.8403 15.5954C13.0439 16.0345 12.3869 16.6525 11.9333 17.3894C9.9684 20.4646 11.4341 24.9842 13.3163 27.4699C14.258 28.6872 15.3586 30.0468 16.7987 29.9986C18.2079 29.9458 18.7343 29.1863 20.4353 29.1863C22.1206 29.1863 22.6144 29.9986 24.0837 29.968C25.5959 29.9458 26.5486 28.7453 27.4573 27.5166C28.1339 26.6493 28.6546 25.6907 29 24.6764C28.1215 24.3405 27.3718 23.7783 26.8443 23.0598C26.3169 22.3413 26.0351 21.4984 26.0341 20.6361Z" fill="#333B4A"/>
<path d="M23.2587 13.2058C24.0832 12.3111 24.4894 11.1611 24.391 10C23.1313 10.1196 21.9678 10.6638 21.1321 11.5242C20.7236 11.9445 20.4107 12.4335 20.2113 12.9632C20.0119 13.493 19.93 14.053 19.9701 14.6114C20.6002 14.6172 21.2235 14.4938 21.7931 14.2503C22.3628 14.0068 22.8639 13.6497 23.2587 13.2058Z" fill="#333B4A"/>
<defs>
<radialGradient id="paint0_radial_237_12234" cx="0" cy="0" r="1" gradientUnits="userSpaceOnUse" gradientTransform="translate(12.0024 11.6023) rotate(47.7464) scale(38.3769)">
<stop stop-color="white"/>
<stop offset="0.810915" stop-color="#E4ECEF"/>
</radialGradient>
</defs>
</svg>
