<svg width="48" height="48" viewBox="0 0 48 48" fill="none" xmlns="http://www.w3.org/2000/svg">
<rect width="48" height="48" rx="16" fill="url(#paint0_linear_128_3715)"/>
<path fill-rule="evenodd" clip-rule="evenodd" d="M14.8138 15.9146C14.8138 15.1038 15.4807 14.4466 16.3034 14.4466C17.1262 14.4466 17.7931 15.1038 17.7931 15.9146C17.7931 16.7253 17.1262 17.3825 16.3034 17.3825C15.4807 17.3825 14.8138 16.7253 14.8138 15.9146ZM16.3034 12C14.1095 12 12.331 13.7526 12.331 15.9146C12.331 17.2484 13.008 18.4265 14.0419 19.1332C14.2324 19.2635 14.3323 19.4952 14.2675 19.7146L12.9556 24.1539C12.8971 24.3521 12.7178 24.4894 12.5111 24.5227C10.86 24.7885 9.6 26.2007 9.6 27.9029C9.6 29.7946 11.1562 31.3282 13.0759 31.3282C14.9955 31.3282 16.5517 29.7946 16.5517 27.9029C16.5517 26.7662 15.9898 25.7587 15.1247 25.1357C14.9393 25.0022 14.8415 24.7727 14.9057 24.5554L16.2113 20.1374C16.2653 19.9547 16.4354 19.8315 16.6278 19.8162V19.8162C16.8283 19.8003 17.0236 19.9034 17.1019 20.086L21.6836 30.7576C21.7702 30.9594 21.7074 31.1909 21.5497 31.3454C20.9163 31.9658 20.5241 32.8252 20.5241 33.7748C20.5241 35.6665 22.0803 37.2 24 37.2C25.9197 37.2 27.4759 35.6665 27.4759 33.7748C27.4759 32.8276 27.0858 31.9703 26.4552 31.3502C26.2971 31.1947 26.2349 30.9617 26.3234 30.7596L31.0089 20.0518C31.0769 19.8966 31.2419 19.8074 31.413 19.8193V19.8193C31.5813 19.831 31.73 19.9389 31.7772 20.0986L33.0943 24.5555C33.1585 24.7728 33.0607 25.0022 32.8752 25.1357C32.0102 25.7588 31.4483 26.7662 31.4483 27.9029C31.4483 29.7946 33.0045 31.3282 34.9241 31.3282C36.8438 31.3282 38.4 29.7946 38.4 27.9029C38.4 26.2007 37.1399 24.7885 35.4888 24.5226C35.2821 24.4894 35.1029 24.3521 35.0443 24.1539L33.7324 19.7146C33.6676 19.4953 33.7675 19.2635 33.9581 19.1333C34.9919 18.4265 35.669 17.2484 35.669 15.9146C35.669 13.7526 33.8905 12 31.6966 12C29.5026 12 27.7241 13.7526 27.7241 15.9146C27.7241 17.0486 28.2135 18.0701 28.9955 18.785C29.1628 18.9379 29.2291 19.1761 29.1388 19.3825L24.4651 30.0632C24.3864 30.2431 24.1988 30.3495 24 30.3495V30.3495V30.3495C23.8041 30.3495 23.6197 30.2438 23.5433 30.0661L18.928 19.3158C18.8413 19.1139 18.9038 18.882 19.0638 18.7296C19.8112 18.0178 20.2759 17.0197 20.2759 15.9146C20.2759 13.7526 18.4974 12 16.3034 12ZM31.6966 14.4466C30.8738 14.4466 30.2069 15.1038 30.2069 15.9146C30.2069 16.7253 30.8738 17.3825 31.6966 17.3825C32.5193 17.3825 33.1862 16.7253 33.1862 15.9146C33.1862 15.1038 32.5193 14.4466 31.6966 14.4466ZM33.4345 27.9029C33.4345 27.0922 34.1014 26.435 34.9241 26.435C35.7469 26.435 36.4138 27.0922 36.4138 27.9029C36.4138 28.7136 35.7469 29.3709 34.9241 29.3709C34.1014 29.3709 33.4345 28.7136 33.4345 27.9029ZM22.5103 33.7748C22.5103 32.964 23.1773 32.3068 24 32.3068C24.8227 32.3068 25.4897 32.964 25.4897 33.7748C25.4897 34.5855 24.8227 35.2427 24 35.2427C23.1773 35.2427 22.5103 34.5855 22.5103 33.7748ZM13.0759 26.435C12.2531 26.435 11.5862 27.0922 11.5862 27.9029C11.5862 28.7136 12.2531 29.3709 13.0759 29.3709C13.8986 29.3709 14.5655 28.7136 14.5655 27.9029C14.5655 27.0922 13.8986 26.435 13.0759 26.435Z" fill="white"/>
<defs>
<linearGradient id="paint0_linear_128_3715" x1="0" y1="0" x2="48" y2="48" gradientUnits="userSpaceOnUse">
<stop stop-color="#0BC06A"/>
<stop offset="1" stop-color="#F1CC06"/>
</linearGradient>
</defs>
</svg>
