<svg width="48" height="48" viewBox="0 0 48 48" fill="none" xmlns="http://www.w3.org/2000/svg">
<rect width="48" height="48" rx="16" fill="url(#paint0_radial_128_3677)"/>
<path d="M23.2081 9.06711C15.2576 9.06711 8.80809 15.4509 8.80809 23.3307C8.80809 25.9906 9.54714 28.4823 10.8279 30.6103L9.01466 37.8626L16.2307 35.8028C18.301 36.9395 20.6788 37.5898 23.2081 37.5898C31.1586 37.5898 37.6081 31.2059 37.6081 23.3262C37.6081 15.4464 31.1632 9.06256 23.2081 9.06256V9.06711ZM23.3688 35.2254C20.8532 35.2254 18.5213 34.4524 16.598 33.1383L12.4896 34.3114L13.5408 30.1192C12.205 28.205 11.42 25.8861 11.42 23.3853C11.42 16.8468 16.7724 11.5452 23.3733 11.5452C29.9743 11.5452 35.3267 16.8468 35.3267 23.3853C35.3267 29.9237 29.9743 35.2254 23.3733 35.2254H23.3688Z" fill="white"/>
<path d="M19.5679 22.1984C19.7331 22.0075 19.903 21.8165 20.0682 21.6301C20.3482 21.3072 20.7706 20.9981 20.7889 20.5343C20.8119 20.0887 20.6512 19.6431 20.4905 19.243C20.3895 18.9838 20.284 18.7246 20.183 18.4609C19.9994 17.988 19.7653 17.3242 19.5036 17.0423C19.1456 16.6649 18.5304 16.5876 18.0485 16.8195C18.0485 16.8195 15.2254 18.1653 16.093 20.8571C16.093 20.8571 17.7776 28.4459 26.256 30.0054C26.256 30.0054 29.2995 30.4374 30.112 28.605C30.2864 28.2094 30.4057 27.6547 30.3782 27.2273C30.3507 26.809 30.0523 26.5362 29.708 26.3361C29.2627 26.0815 28.8634 25.845 28.3538 25.595C27.9132 25.3813 27.4036 25.063 26.8987 25.1994C26.5269 25.2994 26.2606 25.6404 26.0082 25.9087C25.6777 26.2543 25.3426 26.5953 25.0075 26.9408C25.0075 26.9408 20.7155 25.3813 19.5725 22.2075L19.5679 22.1984Z" fill="white"/>
<defs>
<radialGradient id="paint0_radial_128_3677" cx="0" cy="0" r="1" gradientUnits="userSpaceOnUse" gradientTransform="translate(22.3776 57.6576) scale(61.752)">
<stop offset="0.26" stop-color="#36B649"/>
<stop offset="0.76" stop-color="#57C965"/>
</radialGradient>
</defs>
</svg>
