<svg width="48" height="48" viewBox="0 0 48 48" fill="none" xmlns="http://www.w3.org/2000/svg">
<rect width="48" height="48" rx="16" fill="#007AB9"/>
<path d="M37.2 26.7124V36H31.5414V27.3344C31.5414 25.1598 30.7254 23.6726 28.6753 23.6726C27.1119 23.6726 26.1828 24.6734 25.7698 25.6415C25.6223 25.9875 25.583 26.4692 25.583 26.9556V36H19.9245C19.9245 36 19.9982 21.325 19.9245 19.8051H25.583V22.1013C25.583 22.1013 25.5535 22.1387 25.5437 22.1528H25.583V22.1013C26.3352 21.0023 27.6773 19.4263 30.686 19.4263C34.4076 19.4263 37.2 21.7412 37.2 26.7124ZM14.0004 12C12.0635 12 10.8 13.2112 10.8 14.7966C10.8 16.3819 12.029 17.5931 13.9267 17.5931H13.9611C15.9374 17.5931 17.1616 16.3492 17.1616 14.7966C17.1222 13.2065 15.9325 12 13.9955 12H14.0004ZM11.1343 36H16.7928V19.8051H11.1343V36Z" fill="#F1F2F2"/>
</svg>
