<svg width="48" height="48" viewBox="0 0 48 48" fill="none" xmlns="http://www.w3.org/2000/svg">
<rect width="48" height="48" rx="16" fill="url(#paint0_radial_128_3638)"/>
<path d="M32.4 14.4H15.6C14.6452 14.4 13.7295 14.7792 13.0544 15.4544C12.3793 16.1295 12 17.0452 12 18V30C12 30.9547 12.3793 31.8704 13.0544 32.5455C13.7295 33.2207 14.6452 33.6 15.6 33.6H32.4C33.3548 33.6 34.2705 33.2207 34.9456 32.5455C35.6207 31.8704 36 30.9547 36 30V18C36 17.0452 35.6207 16.1295 34.9456 15.4544C34.2705 14.7792 33.3548 14.4 32.4 14.4ZM31.596 16.8L24 22.5L16.404 16.8H31.596ZM32.4 31.2H15.6C15.2817 31.2 14.9765 31.0735 14.7515 30.8485C14.5264 30.6234 14.4 30.3182 14.4 30V18.3L23.28 24.96C23.4877 25.1158 23.7404 25.2 24 25.2C24.2596 25.2 24.5123 25.1158 24.72 24.96L33.6 18.3V30C33.6 30.3182 33.4736 30.6234 33.2485 30.8485C33.0235 31.0735 32.7183 31.2 32.4 31.2Z" fill="black"/>
<defs>
<radialGradient id="paint0_radial_128_3638" cx="0" cy="0" r="1" gradientUnits="userSpaceOnUse" gradientTransform="translate(14.4029 13.9228) rotate(47.7464) scale(46.0523)">
<stop stop-color="white"/>
<stop offset="0.810915" stop-color="#E4ECEF"/>
</radialGradient>
</defs>
</svg>
