<svg width="48" height="48" viewBox="0 0 48 48" fill="none" xmlns="http://www.w3.org/2000/svg">
<rect width="48" height="48" rx="16" fill="#E21A2D"/>
<path d="M15.3455 25.9398C14.5197 25.9398 13.777 25.197 13.777 24.3713C13.777 23.5455 14.5197 22.8027 15.3455 22.8027C16.1713 22.8027 16.914 23.5455 16.914 24.3713C16.9279 25.197 16.2774 25.9398 15.3455 25.9398Z" fill="#F5A800"/>
<path d="M20.9921 28.0618V17.5112H22.7544V21.4924C23.2204 20.8466 24.0508 20.293 25.1626 20.293C25.9883 20.293 26.6388 20.5698 27.2016 21.1188C27.7552 21.6724 28.0274 22.4151 28.0274 23.43V28.0571H26.1821V23.896C26.1821 22.5996 25.5362 21.9538 24.5167 21.9538C23.4003 21.9538 22.6714 22.7795 22.6714 23.9928V28.0664L20.9921 28.0525V28.0618Z" fill="white"/>
<path d="M30.9892 23.6284H35.0627C34.8828 22.6089 34.14 21.8661 33.1205 21.8661C32.0041 21.8661 31.2614 22.512 30.9892 23.6284ZM36.8158 24.9247H31.0722C31.349 25.9443 32.0917 26.687 33.3835 26.687C34.3061 26.687 35.1457 26.4102 35.8746 25.9443L36.6174 27.2406C35.6947 27.9833 34.5783 28.2601 33.2866 28.2601C30.4217 28.2601 29.2131 26.3179 29.2131 24.2789C29.2131 23.1625 29.5867 22.1475 30.3295 21.414C31.0722 20.6713 31.9949 20.2976 33.1943 20.2976C34.3107 20.2976 35.2334 20.6713 35.8793 21.3171C36.622 21.963 36.8988 22.8857 36.8988 24.099C36.8158 24.3758 36.8158 24.6526 36.8158 24.9247Z" fill="white"/>
<path d="M40.4234 26.5854H44.4V28.0617H37.9276V26.8622L41.812 22.0552H38.1075V20.5697H44.3077V21.7784L40.4234 26.5854Z" fill="white"/>
<path d="M10.1694 20.5699H6.46492V22.4152H8.40711V26.6686C8.40711 27.965 7.66437 28.8 6.46492 28.8C5.72218 28.8 5.07632 28.5232 4.52272 27.8773L3.60007 29.2659C4.42585 30.0917 5.44538 30.4654 6.65868 30.4654C7.77509 30.4654 8.60087 30.1886 9.24673 29.5427C9.89259 28.8968 10.2663 27.9742 10.2663 26.7609V22.3275V20.5652H10.1694V20.5699Z" fill="white"/>
<path d="M17.8505 20.5699V21.2157C17.2047 20.6621 16.3743 20.39 15.4424 20.39C13.2234 20.39 11.4611 22.1522 11.4611 24.3712C11.4611 26.5902 13.2234 28.3525 15.4424 28.3525C16.3651 28.3525 17.2047 28.0757 17.8505 27.5267V28.1726H19.5159V20.5745H17.8505V20.5699ZM15.3455 26.7655C13.9569 26.7655 12.9374 25.6491 12.9374 24.3574C12.9374 22.9688 14.0538 21.9492 15.3455 21.9492C16.7341 21.9492 17.7537 23.0657 17.7537 24.3574C17.7537 25.6491 16.7341 26.7655 15.3455 26.7655Z" fill="white"/>
</svg>
