<svg width="48" height="48" viewBox="0 0 48 48" fill="none" xmlns="http://www.w3.org/2000/svg">
<rect width="48" height="48" rx="16" fill="url(#paint0_radial_128_3646)"/>
<path d="M21.14 17.8466L16.6238 14.1891V14.1926L21.1364 17.8501L21.14 17.8466Z" fill="#547DBE"/>
<path d="M26.6834 22.3383V22.3418L31.5204 26.2631L31.524 26.2596L26.6834 22.3383Z" fill="#547DBE"/>
<path d="M21.1441 17.8509L21.1403 17.8471L21.1365 17.8509H21.1403H21.1441Z" fill="white"/>
<path d="M26.6799 22.3428H26.6844V22.3383L26.6799 22.3428Z" fill="white"/>
<path d="M15.4056 24.4728L21.1364 17.8507L16.6202 14.1932C15.1569 15.9551 14.4 18.1179 14.4 19.9783C14.4 21.7332 14.7496 23.1435 15.4056 24.4728Z" fill="#EA4335"/>
<path d="M24.0019 23.5056C22.0124 23.5056 20.3976 21.9301 20.3976 19.9888C20.3976 19.1835 20.6752 18.4449 21.1401 17.8506L15.4093 24.4692C16.2095 26.101 17.471 27.6133 19.1073 29.5018C19.3488 29.7796 19.5759 30.0504 19.7885 30.3106L26.6871 22.338C26.0275 23.0519 25.0724 23.5021 24.0091 23.5021L24.0019 23.5056Z" fill="#FBBC04"/>
<path d="M19.7849 30.3137C22.1745 33.2467 22.7187 34.9875 22.9782 35.9054C23.263 36.9042 23.5477 37.1996 24.0019 37.1996C24.456 37.1996 24.7407 36.9042 25.0255 35.9054C25.3102 34.9066 25.9301 32.9302 28.9001 29.5048C29.9309 28.3161 30.8103 27.2752 31.5204 26.2623L26.6834 22.3411L19.7849 30.3137Z" fill="#34A853"/>
<path d="M32.4215 15.7084L26.6871 22.3376L31.524 26.2589C32.8648 24.3492 33.6001 22.5275 33.6001 19.9778C33.6001 18.6274 33.2 17.1116 32.4215 15.712V15.7084Z" fill="#34A853"/>
<path d="M26.8816 11.2074C26.0021 10.9471 25.0434 10.7994 24.0018 10.7994C20.7183 10.7994 18.2385 12.2484 16.6238 14.1861L21.14 17.8436L26.8816 11.2039V11.2074Z" fill="#1A73E8"/>
<path d="M26.8816 11.2078L21.14 17.8476C21.7996 17.0141 22.834 16.4725 23.9982 16.4725C25.9878 16.4725 27.6025 18.048 27.6025 19.9893C27.6025 20.8931 27.2529 21.7161 26.6798 22.3385L32.4142 15.7093C31.3113 13.7294 29.4515 11.9745 26.8744 11.2078H26.8816Z" fill="#4285F4"/>
<defs>
<radialGradient id="paint0_radial_128_3646" cx="0" cy="0" r="1" gradientUnits="userSpaceOnUse" gradientTransform="translate(14.4029 13.9228) rotate(47.7464) scale(46.0523)">
<stop stop-color="white"/>
<stop offset="0.810915" stop-color="#E4ECEF"/>
</radialGradient>
</defs>
</svg>
