<svg width="48" height="48" viewBox="0 0 48 48" fill="none" xmlns="http://www.w3.org/2000/svg">
<rect width="48" height="48" rx="16" fill="url(#paint0_radial_128_3675)"/>
<path d="M29.0666 10.8H18.9334C14.4419 10.8 10.8 14.4419 10.8 18.9333V29.0666C10.8 33.5581 14.4419 37.2 18.9334 37.2H29.0666C33.5581 37.2 37.2 33.5581 37.2 29.0666V18.9333C37.2 14.4419 33.5581 10.8 29.0666 10.8ZM34.6655 28.0929C34.6655 31.7252 31.7205 34.6655 28.0929 34.6655H19.9071C16.2747 34.6655 13.3345 31.7252 13.3345 28.0929V19.9071C13.3345 16.2795 16.2795 13.3345 19.9071 13.3345H28.0929C31.7205 13.3345 34.6655 16.2795 34.6655 19.9071V28.0929Z" fill="white"/>
<path d="M24.3555 17.0912C20.5132 17.0912 17.4011 20.2032 17.4011 24.0456C17.4011 27.8879 20.5132 31 24.3555 31C28.1978 31 31.3099 27.8832 31.3099 24.0456C31.3099 20.208 28.1978 17.0912 24.3555 17.0912ZM24.3555 28.2268C22.0453 28.2268 20.1695 26.351 20.1695 24.0456C20.1695 21.7402 22.0406 19.8596 24.3555 19.8596C26.6705 19.8596 28.5367 21.7306 28.5367 24.0456C28.5367 26.3605 26.6609 28.2268 24.3555 28.2268Z" fill="white"/>
<path d="M32.5987 16.9818C32.5987 17.9602 31.8063 18.7478 30.8279 18.7478C29.8494 18.7478 29.0618 17.9555 29.0618 16.9818C29.0618 16.008 29.8541 15.2109 30.8279 15.2109C31.8016 15.2109 32.5987 16.0033 32.5987 16.9818Z" fill="white"/>
<defs>
<radialGradient id="paint0_radial_128_3675" cx="0" cy="0" r="1" gradientUnits="userSpaceOnUse" gradientTransform="translate(-4.00126 46.9992) rotate(1.21888) scale(94.0509 94.051)">
<stop offset="0.0692198" stop-color="#FFDD55"/>
<stop offset="0.348687" stop-color="#FF543F"/>
<stop offset="0.459085" stop-color="#E80027"/>
<stop offset="0.504" stop-color="#E80027"/>
<stop offset="0.610753" stop-color="#C1009D"/>
<stop offset="0.761" stop-color="#C0009E"/>
<stop offset="0.83379" stop-color="#C20099"/>
</radialGradient>
</defs>
</svg>
