<svg width="48" height="48" viewBox="0 0 48 48" fill="none" xmlns="http://www.w3.org/2000/svg">
<rect width="48" height="48" rx="16" fill="#1DA1F2"/>
<path d="M18.6608 34.7951C29.5268 34.7951 35.4693 26.0209 35.4693 18.4176C35.4693 18.1706 35.4693 17.9186 35.4541 17.6765C36.6101 16.8663 37.609 15.8486 38.4 14.6975C37.3403 15.1569 36.1994 15.4632 35.0079 15.6016C36.2299 14.8901 37.1628 13.7588 37.6039 12.4199C36.4631 13.077 35.1955 13.5612 33.8518 13.8181C32.7718 12.6966 31.2406 12 29.542 12C26.2817 12 23.6349 14.5789 23.6349 17.7556C23.6349 18.2052 23.6856 18.6449 23.787 19.0697C18.8789 18.8276 14.5234 16.5353 11.6079 13.0523C11.1008 13.9021 10.8068 14.8901 10.8068 15.9424C10.8068 17.9384 11.8462 19.7021 13.4383 20.7346C12.4699 20.705 11.5572 20.4481 10.7611 20.0133C10.7611 20.0381 10.7611 20.0628 10.7611 20.0875C10.7611 22.8788 12.7994 25.2057 15.4969 25.7294C15.0051 25.8579 14.4828 25.932 13.9403 25.932C13.56 25.932 13.1899 25.8924 12.8299 25.8233C13.5854 28.1107 15.7656 29.7756 18.3465 29.825C16.3234 31.3714 13.778 32.2903 11.0096 32.2903C10.533 32.2903 10.0665 32.2656 9.6 32.2112C12.2163 33.8465 15.3194 34.8 18.6558 34.8" fill="white"/>
</svg>
