<svg width="48" height="48" viewBox="0 0 48 48" fill="none" xmlns="http://www.w3.org/2000/svg">
<rect width="48" height="48" rx="16" fill="url(#paint0_radial_128_3576)"/>
<path fill-rule="evenodd" clip-rule="evenodd" d="M20.6472 13.4184C18.5462 14.0847 16.6909 15.3611 15.3177 17.0852C13.9445 18.8093 13.1154 20.9031 12.936 23.1H18.312C18.3516 21.7848 18.474 20.4888 18.678 19.26C18.9264 17.7552 19.296 16.368 19.77 15.18C20.01 14.5681 20.3035 13.9786 20.6472 13.4184ZM24 11.1C22.306 11.1 20.6285 11.4336 19.0634 12.0819C17.4983 12.7302 16.0762 13.6804 14.8783 14.8783C13.6805 16.0762 12.7302 17.4983 12.082 19.0634C11.4337 20.6285 11.1 22.3059 11.1 24C11.1 25.694 11.4337 27.3715 12.082 28.9366C12.7302 30.5017 13.6805 31.9238 14.8783 33.1217C16.0762 34.3195 17.4983 35.2697 19.0634 35.918C20.6285 36.5663 22.306 36.9 24 36.9C27.4213 36.9 30.7025 35.5409 33.1217 33.1217C35.5409 30.7024 36.9 27.4213 36.9 24C36.9 20.5787 35.5409 17.2975 33.1217 14.8783C30.7025 12.4591 27.4213 11.1 24 11.1ZM24 12.9C23.6868 12.9 23.2812 13.0512 22.8108 13.5384C22.3356 14.0304 21.8616 14.7996 21.4416 15.8484C21.0252 16.8912 20.6856 18.1488 20.4528 19.5552C20.2668 20.6832 20.1528 21.8796 20.1144 23.1H27.8856C27.8511 21.9122 27.7381 20.728 27.5472 19.5552C27.3144 18.1488 26.9748 16.8912 26.5584 15.8484C26.1384 14.7996 25.6644 14.0304 25.1904 13.5384C24.7188 13.0512 24.3144 12.9 24 12.9ZM29.688 23.1C29.6521 21.8132 29.5298 20.5303 29.322 19.26C29.0736 17.7552 28.704 16.368 28.23 15.18C27.9897 14.568 27.6958 13.9785 27.3516 13.4184C29.0484 13.955 30.5911 14.8922 31.8492 16.1508C33.7107 18.0127 34.8497 20.4758 35.0628 23.1H29.688ZM27.8856 24.9H20.1144C20.1516 26.1204 20.2668 27.3168 20.4528 28.4448C20.6856 29.8512 21.0252 31.1088 21.4416 32.1504C21.8616 33.2004 22.3356 33.9696 22.8096 34.4616C23.2812 34.9488 23.6856 35.1 24 35.1C24.3132 35.1 24.7188 34.9488 25.1892 34.4616C25.6644 33.9696 26.1384 33.2004 26.5584 32.1516C26.9748 31.1088 27.3144 29.8512 27.5472 28.4448C27.7332 27.3168 27.8472 26.1204 27.8856 24.9ZM27.3528 34.5816C27.6768 34.0608 27.9708 33.4668 28.2288 32.82C28.704 31.632 29.0736 30.2448 29.322 28.74C29.5294 27.4696 29.6513 26.1867 29.6868 24.9H35.0628C34.8841 27.097 34.0552 29.1911 32.6819 30.9153C31.3086 32.6396 29.4542 33.9159 27.3528 34.5816ZM20.6472 34.5816C20.3039 34.0213 20.0108 33.4318 19.7712 32.82C19.296 31.632 18.9264 30.2448 18.678 28.74C18.4706 27.4696 18.3487 26.1867 18.3132 24.9H12.936C13.1147 27.0969 13.9433 29.1909 15.3164 30.9151C16.6895 32.6393 18.5448 33.9157 20.646 34.5816H20.6472Z" fill="black"/>
<defs>
<radialGradient id="paint0_radial_128_3576" cx="0" cy="0" r="1" gradientUnits="userSpaceOnUse" gradientTransform="translate(14.4029 13.9228) rotate(47.7464) scale(46.0523)">
<stop stop-color="white"/>
<stop offset="0.810915" stop-color="#E4ECEF"/>
</radialGradient>
</defs>
</svg>
