<svg width="48" height="48" viewBox="0 0 48 48" fill="none" xmlns="http://www.w3.org/2000/svg">
<rect width="48" height="48" rx="16" fill="url(#paint0_radial_128_3695)"/>
<mask id="path-2-outside-1_128_3695" maskUnits="userSpaceOnUse" x="8.60001" y="8.59998" width="31" height="31" fill="black">
<rect fill="white" x="8.60001" y="8.59998" width="31" height="31"/>
<path d="M17.1856 14.8189C17.2361 14.7033 17.2866 14.5877 17.3411 14.4762C17.6676 13.7826 18.0835 13.1343 18.5928 12.5769C19.0282 12.1021 19.518 11.6933 20.0583 11.3671C20.5209 11.0864 21.0185 10.8593 21.5355 10.6941C21.9554 10.5579 22.3869 10.4629 22.8261 10.4051C23.246 10.3514 23.6697 10.3308 24.0973 10.3349C24.521 10.3432 24.937 10.3556 25.3529 10.4175C25.8039 10.4877 26.2509 10.5992 26.6824 10.7519C27.2033 10.9377 27.7087 11.1813 28.1752 11.491C28.7155 11.8461 29.2053 12.2879 29.629 12.7916C30.1305 13.3903 30.5309 14.0798 30.838 14.8106C31.4172 16.1856 31.2656 18.6753 31.1451 20.6737C31.1257 20.9916 31.1101 21.2971 31.0946 21.5903V21.7142L31.1645 21.8091C31.1956 21.8463 31.4989 22.1766 32.1636 22.2055H32.183C32.4746 22.2014 32.7622 22.1312 33.0421 22.0321C33.2948 21.9413 33.5397 21.8009 33.7963 21.7389C34.0723 21.6729 34.566 21.8133 34.7565 22.0445C34.9392 22.2674 34.737 22.5606 34.5699 22.7051C34.3289 22.9074 34.049 23.0478 33.7613 23.1675C33.6602 23.2088 33.5319 23.2501 33.3842 23.3038C32.7311 23.5226 31.7438 23.8571 31.4133 24.687C31.2267 25.1577 31.2773 25.7068 31.5649 26.3303C31.6816 26.6234 33.5475 31.0785 37.7342 31.8135C37.7342 31.8341 37.7303 31.8547 37.7186 31.8836C37.6487 32.0612 37.1938 32.6764 34.3872 33.1347C33.944 33.209 33.839 33.7293 33.7146 34.3403C33.668 34.5592 33.6252 34.778 33.5592 35.0051C33.5397 35.0753 33.5358 35.0794 33.4697 35.0794H33.4386C33.3143 35.0794 33.1238 35.0505 32.9061 35.0051C32.5096 34.9225 31.9614 34.8234 31.2617 34.8234C30.873 34.8234 30.4726 34.8565 30.0683 34.9308C29.2092 35.0835 28.5095 35.6079 27.7709 36.1653C27.316 36.508 26.8612 36.8466 26.3636 37.115C25.8194 37.4081 25.2363 37.6022 24.6299 37.66C24.4938 37.6724 24.3578 37.6765 24.2256 37.6848C23.5803 37.7095 22.935 37.6435 22.3247 37.4246C21.7843 37.2264 21.2867 36.925 20.8164 36.5906C20.622 36.4543 20.4315 36.3098 20.241 36.1653C19.4985 35.612 18.7988 35.0835 17.9436 34.9308C17.5393 34.8606 17.1389 34.8234 16.7502 34.8234C16.0543 34.8234 15.5062 34.9349 15.1097 35.0175C14.892 35.0629 14.7015 35.1042 14.5771 35.1042C14.4761 35.1042 14.4722 35.1001 14.4527 35.0175C14.3867 34.7904 14.3439 34.5674 14.2973 34.3486C14.1729 33.7375 14.064 33.2132 13.6247 33.143C10.8142 32.6805 10.3632 32.0653 10.2933 31.8919C10.2816 31.863 10.2777 31.8424 10.2738 31.8176C14.4644 31.0868 16.3265 26.6317 16.447 26.3344C16.7346 25.7151 16.7852 25.1618 16.5986 24.6911C16.2681 23.8612 15.2808 23.5309 14.6277 23.3079C14.4761 23.2584 14.3478 23.213 14.2506 23.1717C13.8658 23.0106 12.6801 22.4202 13.4498 21.9165C13.617 21.8091 13.7997 21.7389 13.994 21.7513C14.2001 21.7637 14.3828 21.8711 14.5771 21.9495C14.9542 22.1023 15.3585 22.2096 15.7628 22.2096C16.4897 22.2096 16.8163 21.8504 16.8513 21.8091L16.929 21.7142V21.5903C16.9096 21.2971 16.894 20.9875 16.8746 20.6737C16.758 18.6712 16.6102 16.1897 17.1817 14.8148L17.1856 14.8189ZM20.4276 10.3638C19.6424 10.7313 18.9349 11.2309 18.3285 11.842C17.6015 12.5728 17.0106 13.477 16.5714 14.5216C15.9261 16.0576 16.0777 18.6381 16.2021 20.715C16.2137 20.9421 16.2293 21.1733 16.2409 21.4004C16.1476 21.4458 15.9921 21.4953 15.7667 21.4953C15.4285 21.4953 15.0942 21.3962 14.7832 21.2682C14.5111 21.1568 14.2428 21.037 13.9474 21.0288C13.6636 21.0205 13.3721 21.1279 13.1272 21.2806C12.7928 21.4912 12.579 21.7844 12.5168 22.1147C12.4819 22.3294 12.4819 22.7588 12.9289 23.1923C13.1738 23.4318 13.5353 23.6506 14.0018 23.8447C14.1223 23.8942 14.27 23.9438 14.4216 23.9974C14.9581 24.1791 15.7628 24.4516 15.9766 24.976C16.0816 25.2444 16.0349 25.5912 15.8367 26.0206C15.8367 26.0289 15.8289 26.0413 15.825 26.0536C15.584 26.6606 15.2419 27.2304 14.8804 27.7589C14.3167 28.5888 13.6403 29.3568 12.8473 29.9389C12.4313 30.2445 11.9882 30.5087 11.5178 30.7069C11.098 30.8803 10.6509 30.9588 10.2194 31.0868C9.86954 31.19 9.57799 31.4336 9.60132 31.8589C9.6052 31.9662 9.62853 32.0694 9.67129 32.1727C9.80735 32.5154 10.1261 32.8044 10.647 33.0604C11.2807 33.37 12.2292 33.6343 13.4654 33.8407C13.5276 33.9687 13.5936 34.2867 13.6364 34.5014C13.683 34.7326 13.7297 34.9679 13.7997 35.2198C13.8735 35.4923 14.0718 35.8226 14.5733 35.8226C14.7637 35.8226 14.9814 35.7772 15.2341 35.7235C15.6073 35.6492 16.1127 35.5419 16.7463 35.5419C17.0962 35.5419 17.4616 35.5749 17.827 35.6409C18.5306 35.7648 19.1409 36.219 19.8445 36.7516C19.9067 36.797 19.965 36.8383 20.0233 36.8837C20.4587 37.2058 20.9019 37.5237 21.3761 37.7756C21.9087 38.0564 22.4763 38.2545 23.0633 38.3454C23.4054 38.3949 23.7436 38.4032 24.0856 38.3991C24.4627 38.3908 24.8398 38.3743 25.2052 38.2958C25.7805 38.1761 26.3248 37.949 26.8379 37.6517C27.075 37.5155 27.3044 37.3668 27.526 37.2058C27.7359 37.0572 27.9613 36.9168 28.1557 36.7475C28.8632 36.219 29.4696 35.7607 30.1733 35.6368C30.5387 35.5708 30.9041 35.5377 31.2539 35.5377C31.8604 35.5377 32.3385 35.6203 32.7661 35.7111C33.046 35.7689 33.2637 35.7978 33.4309 35.7978H33.462C33.8274 35.7978 34.0995 35.5831 34.2006 35.2074C34.2705 34.9597 34.3211 34.7285 34.3638 34.4931C34.4066 34.2908 34.4727 33.9646 34.5388 33.8366C35.775 33.6302 36.7196 33.3701 37.3532 33.0563C37.8702 32.8003 38.1929 32.5112 38.329 32.1685C38.3717 32.0653 38.395 31.958 38.3989 31.8547C38.4184 31.4873 38.1735 31.1652 37.8353 31.1074C33.9829 30.4303 32.2452 26.2271 32.1753 26.0495C32.1675 26.0371 32.1636 26.0247 32.1597 26.0165C31.9614 25.5912 31.9148 25.2402 32.0236 24.9719C32.2336 24.4475 33.0421 24.175 33.5747 23.9933C33.7302 23.9438 33.874 23.8942 33.9945 23.8405C34.5193 23.6217 34.8964 23.3822 35.1452 23.1097C35.4445 22.7877 35.4989 22.478 35.4951 22.2716C35.4795 21.4747 34.7409 21.0412 34.084 21.0246C33.7652 21.0164 33.3726 21.1361 33.081 21.26C32.7895 21.3839 32.4746 21.4788 32.1558 21.4953C31.9692 21.4871 31.8409 21.4458 31.7593 21.4045C31.771 21.2146 31.7826 21.0164 31.7943 20.8141L31.8021 20.7232C31.9226 18.6464 32.0781 16.0617 31.4328 14.5258C30.9935 13.477 30.3987 12.5687 29.6679 11.8378C29.0576 11.2226 28.3501 10.723 27.5609 10.3597C26.7563 9.98396 25.8972 9.75274 25.0264 9.66191C24.6921 9.62888 24.35 9.59998 24.0157 9.59998C23.281 9.59998 22.5229 9.68668 21.8038 9.86835C21.3256 9.98809 20.8552 10.1574 20.4043 10.368L20.4276 10.3638Z"/>
</mask>
<path d="M17.1856 14.8189C17.2361 14.7033 17.2866 14.5877 17.3411 14.4762C17.6676 13.7826 18.0835 13.1343 18.5928 12.5769C19.0282 12.1021 19.518 11.6933 20.0583 11.3671C20.5209 11.0864 21.0185 10.8593 21.5355 10.6941C21.9554 10.5579 22.3869 10.4629 22.8261 10.4051C23.246 10.3514 23.6697 10.3308 24.0973 10.3349C24.521 10.3432 24.937 10.3556 25.3529 10.4175C25.8039 10.4877 26.2509 10.5992 26.6824 10.7519C27.2033 10.9377 27.7087 11.1813 28.1752 11.491C28.7155 11.8461 29.2053 12.2879 29.629 12.7916C30.1305 13.3903 30.5309 14.0798 30.838 14.8106C31.4172 16.1856 31.2656 18.6753 31.1451 20.6737C31.1257 20.9916 31.1101 21.2971 31.0946 21.5903V21.7142L31.1645 21.8091C31.1956 21.8463 31.4989 22.1766 32.1636 22.2055H32.183C32.4746 22.2014 32.7622 22.1312 33.0421 22.0321C33.2948 21.9413 33.5397 21.8009 33.7963 21.7389C34.0723 21.6729 34.566 21.8133 34.7565 22.0445C34.9392 22.2674 34.737 22.5606 34.5699 22.7051C34.3289 22.9074 34.049 23.0478 33.7613 23.1675C33.6602 23.2088 33.5319 23.2501 33.3842 23.3038C32.7311 23.5226 31.7438 23.8571 31.4133 24.687C31.2267 25.1577 31.2773 25.7068 31.5649 26.3303C31.6816 26.6234 33.5475 31.0785 37.7342 31.8135C37.7342 31.8341 37.7303 31.8547 37.7186 31.8836C37.6487 32.0612 37.1938 32.6764 34.3872 33.1347C33.944 33.209 33.839 33.7293 33.7146 34.3403C33.668 34.5592 33.6252 34.778 33.5592 35.0051C33.5397 35.0753 33.5358 35.0794 33.4697 35.0794H33.4386C33.3143 35.0794 33.1238 35.0505 32.9061 35.0051C32.5096 34.9225 31.9614 34.8234 31.2617 34.8234C30.873 34.8234 30.4726 34.8565 30.0683 34.9308C29.2092 35.0835 28.5095 35.6079 27.7709 36.1653C27.316 36.508 26.8612 36.8466 26.3636 37.115C25.8194 37.4081 25.2363 37.6022 24.6299 37.66C24.4938 37.6724 24.3578 37.6765 24.2256 37.6848C23.5803 37.7095 22.935 37.6435 22.3247 37.4246C21.7843 37.2264 21.2867 36.925 20.8164 36.5906C20.622 36.4543 20.4315 36.3098 20.241 36.1653C19.4985 35.612 18.7988 35.0835 17.9436 34.9308C17.5393 34.8606 17.1389 34.8234 16.7502 34.8234C16.0543 34.8234 15.5062 34.9349 15.1097 35.0175C14.892 35.0629 14.7015 35.1042 14.5771 35.1042C14.4761 35.1042 14.4722 35.1001 14.4527 35.0175C14.3867 34.7904 14.3439 34.5674 14.2973 34.3486C14.1729 33.7375 14.064 33.2132 13.6247 33.143C10.8142 32.6805 10.3632 32.0653 10.2933 31.8919C10.2816 31.863 10.2777 31.8424 10.2738 31.8176C14.4644 31.0868 16.3265 26.6317 16.447 26.3344C16.7346 25.7151 16.7852 25.1618 16.5986 24.6911C16.2681 23.8612 15.2808 23.5309 14.6277 23.3079C14.4761 23.2584 14.3478 23.213 14.2506 23.1717C13.8658 23.0106 12.6801 22.4202 13.4498 21.9165C13.617 21.8091 13.7997 21.7389 13.994 21.7513C14.2001 21.7637 14.3828 21.8711 14.5771 21.9495C14.9542 22.1023 15.3585 22.2096 15.7628 22.2096C16.4897 22.2096 16.8163 21.8504 16.8513 21.8091L16.929 21.7142V21.5903C16.9096 21.2971 16.894 20.9875 16.8746 20.6737C16.758 18.6712 16.6102 16.1897 17.1817 14.8148L17.1856 14.8189ZM20.4276 10.3638C19.6424 10.7313 18.9349 11.2309 18.3285 11.842C17.6015 12.5728 17.0106 13.477 16.5714 14.5216C15.9261 16.0576 16.0777 18.6381 16.2021 20.715C16.2137 20.9421 16.2293 21.1733 16.2409 21.4004C16.1476 21.4458 15.9921 21.4953 15.7667 21.4953C15.4285 21.4953 15.0942 21.3962 14.7832 21.2682C14.5111 21.1568 14.2428 21.037 13.9474 21.0288C13.6636 21.0205 13.3721 21.1279 13.1272 21.2806C12.7928 21.4912 12.579 21.7844 12.5168 22.1147C12.4819 22.3294 12.4819 22.7588 12.9289 23.1923C13.1738 23.4318 13.5353 23.6506 14.0018 23.8447C14.1223 23.8942 14.27 23.9438 14.4216 23.9974C14.9581 24.1791 15.7628 24.4516 15.9766 24.976C16.0816 25.2444 16.0349 25.5912 15.8367 26.0206C15.8367 26.0289 15.8289 26.0413 15.825 26.0536C15.584 26.6606 15.2419 27.2304 14.8804 27.7589C14.3167 28.5888 13.6403 29.3568 12.8473 29.9389C12.4313 30.2445 11.9882 30.5087 11.5178 30.7069C11.098 30.8803 10.6509 30.9588 10.2194 31.0868C9.86954 31.19 9.57799 31.4336 9.60132 31.8589C9.6052 31.9662 9.62853 32.0694 9.67129 32.1727C9.80735 32.5154 10.1261 32.8044 10.647 33.0604C11.2807 33.37 12.2292 33.6343 13.4654 33.8407C13.5276 33.9687 13.5936 34.2867 13.6364 34.5014C13.683 34.7326 13.7297 34.9679 13.7997 35.2198C13.8735 35.4923 14.0718 35.8226 14.5733 35.8226C14.7637 35.8226 14.9814 35.7772 15.2341 35.7235C15.6073 35.6492 16.1127 35.5419 16.7463 35.5419C17.0962 35.5419 17.4616 35.5749 17.827 35.6409C18.5306 35.7648 19.1409 36.219 19.8445 36.7516C19.9067 36.797 19.965 36.8383 20.0233 36.8837C20.4587 37.2058 20.9019 37.5237 21.3761 37.7756C21.9087 38.0564 22.4763 38.2545 23.0633 38.3454C23.4054 38.3949 23.7436 38.4032 24.0856 38.3991C24.4627 38.3908 24.8398 38.3743 25.2052 38.2958C25.7805 38.1761 26.3248 37.949 26.8379 37.6517C27.075 37.5155 27.3044 37.3668 27.526 37.2058C27.7359 37.0572 27.9613 36.9168 28.1557 36.7475C28.8632 36.219 29.4696 35.7607 30.1733 35.6368C30.5387 35.5708 30.9041 35.5377 31.2539 35.5377C31.8604 35.5377 32.3385 35.6203 32.7661 35.7111C33.046 35.7689 33.2637 35.7978 33.4309 35.7978H33.462C33.8274 35.7978 34.0995 35.5831 34.2006 35.2074C34.2705 34.9597 34.3211 34.7285 34.3638 34.4931C34.4066 34.2908 34.4727 33.9646 34.5388 33.8366C35.775 33.6302 36.7196 33.3701 37.3532 33.0563C37.8702 32.8003 38.1929 32.5112 38.329 32.1685C38.3717 32.0653 38.395 31.958 38.3989 31.8547C38.4184 31.4873 38.1735 31.1652 37.8353 31.1074C33.9829 30.4303 32.2452 26.2271 32.1753 26.0495C32.1675 26.0371 32.1636 26.0247 32.1597 26.0165C31.9614 25.5912 31.9148 25.2402 32.0236 24.9719C32.2336 24.4475 33.0421 24.175 33.5747 23.9933C33.7302 23.9438 33.874 23.8942 33.9945 23.8405C34.5193 23.6217 34.8964 23.3822 35.1452 23.1097C35.4445 22.7877 35.4989 22.478 35.4951 22.2716C35.4795 21.4747 34.7409 21.0412 34.084 21.0246C33.7652 21.0164 33.3726 21.1361 33.081 21.26C32.7895 21.3839 32.4746 21.4788 32.1558 21.4953C31.9692 21.4871 31.8409 21.4458 31.7593 21.4045C31.771 21.2146 31.7826 21.0164 31.7943 20.8141L31.8021 20.7232C31.9226 18.6464 32.0781 16.0617 31.4328 14.5258C30.9935 13.477 30.3987 12.5687 29.6679 11.8378C29.0576 11.2226 28.3501 10.723 27.5609 10.3597C26.7563 9.98396 25.8972 9.75274 25.0264 9.66191C24.6921 9.62888 24.35 9.59998 24.0157 9.59998C23.281 9.59998 22.5229 9.68668 21.8038 9.86835C21.3256 9.98809 20.8552 10.1574 20.4043 10.368L20.4276 10.3638Z" fill="#020202"/>
<path d="M17.1856 14.8189C17.2361 14.7033 17.2866 14.5877 17.3411 14.4762C17.6676 13.7826 18.0835 13.1343 18.5928 12.5769C19.0282 12.1021 19.518 11.6933 20.0583 11.3671C20.5209 11.0864 21.0185 10.8593 21.5355 10.6941C21.9554 10.5579 22.3869 10.4629 22.8261 10.4051C23.246 10.3514 23.6697 10.3308 24.0973 10.3349C24.521 10.3432 24.937 10.3556 25.3529 10.4175C25.8039 10.4877 26.2509 10.5992 26.6824 10.7519C27.2033 10.9377 27.7087 11.1813 28.1752 11.491C28.7155 11.8461 29.2053 12.2879 29.629 12.7916C30.1305 13.3903 30.5309 14.0798 30.838 14.8106C31.4172 16.1856 31.2656 18.6753 31.1451 20.6737C31.1257 20.9916 31.1101 21.2971 31.0946 21.5903V21.7142L31.1645 21.8091C31.1956 21.8463 31.4989 22.1766 32.1636 22.2055H32.183C32.4746 22.2014 32.7622 22.1312 33.0421 22.0321C33.2948 21.9413 33.5397 21.8009 33.7963 21.7389C34.0723 21.6729 34.566 21.8133 34.7565 22.0445C34.9392 22.2674 34.737 22.5606 34.5699 22.7051C34.3289 22.9074 34.049 23.0478 33.7613 23.1675C33.6602 23.2088 33.5319 23.2501 33.3842 23.3038C32.7311 23.5226 31.7438 23.8571 31.4133 24.687C31.2267 25.1577 31.2773 25.7068 31.5649 26.3303C31.6816 26.6234 33.5475 31.0785 37.7342 31.8135C37.7342 31.8341 37.7303 31.8547 37.7186 31.8836C37.6487 32.0612 37.1938 32.6764 34.3872 33.1347C33.944 33.209 33.839 33.7293 33.7146 34.3403C33.668 34.5592 33.6252 34.778 33.5592 35.0051C33.5397 35.0753 33.5358 35.0794 33.4697 35.0794H33.4386C33.3143 35.0794 33.1238 35.0505 32.9061 35.0051C32.5096 34.9225 31.9614 34.8234 31.2617 34.8234C30.873 34.8234 30.4726 34.8565 30.0683 34.9308C29.2092 35.0835 28.5095 35.6079 27.7709 36.1653C27.316 36.508 26.8612 36.8466 26.3636 37.115C25.8194 37.4081 25.2363 37.6022 24.6299 37.66C24.4938 37.6724 24.3578 37.6765 24.2256 37.6848C23.5803 37.7095 22.935 37.6435 22.3247 37.4246C21.7843 37.2264 21.2867 36.925 20.8164 36.5906C20.622 36.4543 20.4315 36.3098 20.241 36.1653C19.4985 35.612 18.7988 35.0835 17.9436 34.9308C17.5393 34.8606 17.1389 34.8234 16.7502 34.8234C16.0543 34.8234 15.5062 34.9349 15.1097 35.0175C14.892 35.0629 14.7015 35.1042 14.5771 35.1042C14.4761 35.1042 14.4722 35.1001 14.4527 35.0175C14.3867 34.7904 14.3439 34.5674 14.2973 34.3486C14.1729 33.7375 14.064 33.2132 13.6247 33.143C10.8142 32.6805 10.3632 32.0653 10.2933 31.8919C10.2816 31.863 10.2777 31.8424 10.2738 31.8176C14.4644 31.0868 16.3265 26.6317 16.447 26.3344C16.7346 25.7151 16.7852 25.1618 16.5986 24.6911C16.2681 23.8612 15.2808 23.5309 14.6277 23.3079C14.4761 23.2584 14.3478 23.213 14.2506 23.1717C13.8658 23.0106 12.6801 22.4202 13.4498 21.9165C13.617 21.8091 13.7997 21.7389 13.994 21.7513C14.2001 21.7637 14.3828 21.8711 14.5771 21.9495C14.9542 22.1023 15.3585 22.2096 15.7628 22.2096C16.4897 22.2096 16.8163 21.8504 16.8513 21.8091L16.929 21.7142V21.5903C16.9096 21.2971 16.894 20.9875 16.8746 20.6737C16.758 18.6712 16.6102 16.1897 17.1817 14.8148L17.1856 14.8189ZM20.4276 10.3638C19.6424 10.7313 18.9349 11.2309 18.3285 11.842C17.6015 12.5728 17.0106 13.477 16.5714 14.5216C15.9261 16.0576 16.0777 18.6381 16.2021 20.715C16.2137 20.9421 16.2293 21.1733 16.2409 21.4004C16.1476 21.4458 15.9921 21.4953 15.7667 21.4953C15.4285 21.4953 15.0942 21.3962 14.7832 21.2682C14.5111 21.1568 14.2428 21.037 13.9474 21.0288C13.6636 21.0205 13.3721 21.1279 13.1272 21.2806C12.7928 21.4912 12.579 21.7844 12.5168 22.1147C12.4819 22.3294 12.4819 22.7588 12.9289 23.1923C13.1738 23.4318 13.5353 23.6506 14.0018 23.8447C14.1223 23.8942 14.27 23.9438 14.4216 23.9974C14.9581 24.1791 15.7628 24.4516 15.9766 24.976C16.0816 25.2444 16.0349 25.5912 15.8367 26.0206C15.8367 26.0289 15.8289 26.0413 15.825 26.0536C15.584 26.6606 15.2419 27.2304 14.8804 27.7589C14.3167 28.5888 13.6403 29.3568 12.8473 29.9389C12.4313 30.2445 11.9882 30.5087 11.5178 30.7069C11.098 30.8803 10.6509 30.9588 10.2194 31.0868C9.86954 31.19 9.57799 31.4336 9.60132 31.8589C9.6052 31.9662 9.62853 32.0694 9.67129 32.1727C9.80735 32.5154 10.1261 32.8044 10.647 33.0604C11.2807 33.37 12.2292 33.6343 13.4654 33.8407C13.5276 33.9687 13.5936 34.2867 13.6364 34.5014C13.683 34.7326 13.7297 34.9679 13.7997 35.2198C13.8735 35.4923 14.0718 35.8226 14.5733 35.8226C14.7637 35.8226 14.9814 35.7772 15.2341 35.7235C15.6073 35.6492 16.1127 35.5419 16.7463 35.5419C17.0962 35.5419 17.4616 35.5749 17.827 35.6409C18.5306 35.7648 19.1409 36.219 19.8445 36.7516C19.9067 36.797 19.965 36.8383 20.0233 36.8837C20.4587 37.2058 20.9019 37.5237 21.3761 37.7756C21.9087 38.0564 22.4763 38.2545 23.0633 38.3454C23.4054 38.3949 23.7436 38.4032 24.0856 38.3991C24.4627 38.3908 24.8398 38.3743 25.2052 38.2958C25.7805 38.1761 26.3248 37.949 26.8379 37.6517C27.075 37.5155 27.3044 37.3668 27.526 37.2058C27.7359 37.0572 27.9613 36.9168 28.1557 36.7475C28.8632 36.219 29.4696 35.7607 30.1733 35.6368C30.5387 35.5708 30.9041 35.5377 31.2539 35.5377C31.8604 35.5377 32.3385 35.6203 32.7661 35.7111C33.046 35.7689 33.2637 35.7978 33.4309 35.7978H33.462C33.8274 35.7978 34.0995 35.5831 34.2006 35.2074C34.2705 34.9597 34.3211 34.7285 34.3638 34.4931C34.4066 34.2908 34.4727 33.9646 34.5388 33.8366C35.775 33.6302 36.7196 33.3701 37.3532 33.0563C37.8702 32.8003 38.1929 32.5112 38.329 32.1685C38.3717 32.0653 38.395 31.958 38.3989 31.8547C38.4184 31.4873 38.1735 31.1652 37.8353 31.1074C33.9829 30.4303 32.2452 26.2271 32.1753 26.0495C32.1675 26.0371 32.1636 26.0247 32.1597 26.0165C31.9614 25.5912 31.9148 25.2402 32.0236 24.9719C32.2336 24.4475 33.0421 24.175 33.5747 23.9933C33.7302 23.9438 33.874 23.8942 33.9945 23.8405C34.5193 23.6217 34.8964 23.3822 35.1452 23.1097C35.4445 22.7877 35.4989 22.478 35.4951 22.2716C35.4795 21.4747 34.7409 21.0412 34.084 21.0246C33.7652 21.0164 33.3726 21.1361 33.081 21.26C32.7895 21.3839 32.4746 21.4788 32.1558 21.4953C31.9692 21.4871 31.8409 21.4458 31.7593 21.4045C31.771 21.2146 31.7826 21.0164 31.7943 20.8141L31.8021 20.7232C31.9226 18.6464 32.0781 16.0617 31.4328 14.5258C30.9935 13.477 30.3987 12.5687 29.6679 11.8378C29.0576 11.2226 28.3501 10.723 27.5609 10.3597C26.7563 9.98396 25.8972 9.75274 25.0264 9.66191C24.6921 9.62888 24.35 9.59998 24.0157 9.59998C23.281 9.59998 22.5229 9.68668 21.8038 9.86835C21.3256 9.98809 20.8552 10.1574 20.4043 10.368L20.4276 10.3638Z" stroke="black" stroke-width="2" mask="url(#path-2-outside-1_128_3695)"/>
<path d="M34.3988 33.1396C37.2055 32.6771 37.6564 32.0661 37.7303 31.8885C37.7419 31.8596 37.7458 31.839 37.7458 31.8183C33.5553 31.0875 31.6932 26.6283 31.5766 26.3351C31.2889 25.7117 31.2384 25.1625 31.425 24.6918C31.7554 23.8619 32.7428 23.5316 33.3959 23.3087C33.5436 23.2591 33.6719 23.2137 33.7729 23.1724C34.0606 23.0527 34.3366 22.9123 34.5815 22.71C34.7487 22.5655 34.9508 22.2723 34.7681 22.0493C34.5776 21.8181 34.0839 21.6777 33.8079 21.7438C33.5475 21.8057 33.3026 21.9461 33.0538 22.037C32.7778 22.136 32.4862 22.2062 32.1947 22.2104H32.1752C31.5066 22.1815 31.2073 21.8512 31.1762 21.814L31.0984 21.719V21.5952C31.1179 21.302 31.1373 20.9923 31.1529 20.6785C31.2734 18.6802 31.4211 16.1904 30.8458 14.8155C30.5348 14.0847 30.1344 13.3952 29.6368 12.7965C29.2131 12.2928 28.7233 11.851 28.1829 11.4959C27.7164 11.1862 27.2111 10.9426 26.6902 10.7568C26.2587 10.604 25.8116 10.4926 25.3607 10.4224C24.9408 10.3563 24.5288 10.3439 24.1051 10.3398C23.6813 10.3398 23.2537 10.3522 22.8339 10.41C22.3946 10.4678 21.9631 10.5627 21.5433 10.699C21.0263 10.8642 20.5287 11.0871 20.0661 11.372C19.5257 11.7023 19.0321 12.107 18.6006 12.5818C18.0913 13.1392 17.6754 13.7874 17.3488 14.4811C17.2983 14.5967 17.2439 14.7082 17.1933 14.8238C16.618 16.1987 16.7657 18.6843 16.8862 20.6827C16.9057 20.9965 16.9212 21.3061 16.9407 21.5993V21.7232L16.8668 21.8181C16.8318 21.8594 16.5092 22.2186 15.7783 22.2186C15.374 22.2186 14.9698 22.1071 14.5927 21.9585C14.3983 21.8801 14.2156 21.7727 14.0096 21.7603C13.8152 21.7479 13.6325 21.8181 13.4653 21.9255C12.6956 22.4292 13.8813 23.0196 14.2661 23.1807C14.3633 23.2219 14.4916 23.2632 14.6432 23.3169C15.2963 23.5357 16.2798 23.8702 16.6141 24.7001C16.8007 25.1708 16.7502 25.7241 16.4625 26.3434C16.3459 26.6366 14.4838 31.0916 10.2894 31.8266C10.2894 31.8472 10.2971 31.872 10.3088 31.9009C10.3788 32.0784 10.8336 32.6936 13.6403 33.152C14.0795 33.2221 14.1884 33.7465 14.3128 34.3576C14.3594 34.5764 14.4022 34.7994 14.4683 35.0265C14.4877 35.1091 14.4916 35.1132 14.5927 35.1132C14.7171 35.1132 14.9076 35.0719 15.1253 35.0265C15.5256 34.9439 16.0699 34.8324 16.7657 34.8324C17.1545 34.8324 17.5549 34.8654 17.9591 34.9398C18.8182 35.0925 19.518 35.6169 20.2566 36.1743C20.4471 36.3188 20.6375 36.4633 20.8319 36.5996C21.3062 36.934 21.7999 37.2354 22.3402 37.4336C22.9505 37.6525 23.5958 37.7226 24.2411 37.6937C24.3733 37.6855 24.5132 37.6855 24.6454 37.669C25.2518 37.6112 25.8388 37.413 26.3792 37.124C26.8768 36.8556 27.3316 36.517 27.7864 36.1743C28.5289 35.621 29.2286 35.0925 30.0838 34.9398C30.4842 34.8696 30.8885 34.8324 31.2773 34.8324C31.977 34.8324 32.5212 34.9356 32.9216 35.0141C33.1432 35.0595 33.3298 35.0884 33.4542 35.0884H33.4853C33.5553 35.0884 33.5591 35.0843 33.5747 35.0141C33.6369 34.787 33.6835 34.5682 33.7302 34.3493C33.8546 33.7424 33.9595 33.218 34.4027 33.1437L34.3988 33.1396Z" fill="white"/>
<defs>
<radialGradient id="paint0_radial_128_3695" cx="0" cy="0" r="1" gradientUnits="userSpaceOnUse" gradientTransform="translate(22.4448 51.5328) scale(61.5744)">
<stop offset="0.09" stop-color="#FAF707"/>
<stop offset="0.73" stop-color="#FFFC00"/>
</radialGradient>
</defs>
</svg>
