<svg width="48" height="48" viewBox="0 0 48 48" fill="none" xmlns="http://www.w3.org/2000/svg">
<g clip-path="url(#clip0_1208_4166)">
<rect width="48" height="48" rx="16" fill="#010409"/>
<rect width="48" height="16.5" fill="#590092"/>
<path d="M17.9032 12.7467C18.7148 12.7759 19.5064 12.4938 20.113 11.9591C20.3097 11.7675 20.4652 11.5385 20.57 11.2858C20.6748 11.0331 20.7268 10.762 20.7229 10.4888C20.7253 10.2341 20.6765 9.98143 20.5794 9.74554C20.4823 9.50966 20.3388 9.29522 20.1572 9.11479C19.7273 8.71403 19.1849 8.4516 18.6015 8.36213L17.5098 8.15211C17.0679 8.06457 16.8027 7.8414 16.8027 7.53511C16.8027 7.12814 17.2005 6.84809 17.8369 6.84809C18.1921 6.83445 18.5384 6.96024 18.8004 7.19816C18.9474 7.35688 19.0402 7.55747 19.0655 7.77141L20.6389 7.42134C20.5887 6.97749 20.3822 6.56536 20.0555 6.25736C19.4554 5.70838 18.6625 5.41319 17.8457 5.4347C17.0846 5.411 16.342 5.67012 15.7641 6.16109C15.5534 6.35396 15.3856 6.58822 15.2714 6.84891C15.1573 7.10962 15.0993 7.391 15.1012 7.67514C15.0933 7.9125 15.1343 8.14894 15.2217 8.37014C15.3091 8.59131 15.441 8.79256 15.6094 8.96164C16.0237 9.34162 16.5362 9.60061 17.09 9.70989L18.1639 9.96369C18.7031 10.0862 18.9418 10.2831 18.9418 10.6332C18.9418 11.0708 18.5484 11.3202 17.8988 11.3202C17.6984 11.3299 17.4981 11.2987 17.3103 11.2287C17.1226 11.1587 16.9513 11.0514 16.8071 10.9133C16.6348 10.7415 16.5339 10.5119 16.5243 10.27L14.9111 10.6201C14.9605 11.0899 15.1766 11.5272 15.521 11.8541C15.8382 12.1498 16.2121 12.3796 16.6204 12.5299C17.0288 12.6802 17.4635 12.748 17.8988 12.7292L17.9032 12.7467ZM29.8316 12.7292C30.2735 12.7414 30.7134 12.6668 31.126 12.5099C31.5387 12.3529 31.9159 12.1166 32.2359 11.8147C32.6451 11.4294 32.9401 10.9407 33.0888 10.4013L31.4315 9.8543C31.3541 10.1332 31.2013 10.3859 30.9895 10.5851C30.6781 10.8755 30.2637 11.0327 29.836 11.0226C29.6029 11.0251 29.3716 10.982 29.1555 10.8956C28.9393 10.8092 28.7425 10.6814 28.5765 10.5194C28.2283 10.1244 28.0464 9.61231 28.0682 9.08854C28.0442 8.55812 28.2315 8.03961 28.5897 7.64451C28.924 7.32541 29.3717 7.14936 29.836 7.15441C30.0427 7.148 30.2485 7.1835 30.4408 7.25875C30.6331 7.33401 30.8078 7.44741 30.9542 7.59199C31.1609 7.80032 31.3126 8.05581 31.3961 8.33588L33.08 7.77579C32.9392 7.25452 32.667 6.77723 32.2889 6.38863C31.9586 6.07811 31.5694 5.83547 31.1439 5.67474C30.7183 5.51401 30.2648 5.43838 29.8095 5.4522C29.3361 5.44664 28.8663 5.53386 28.4272 5.70885C27.988 5.88383 27.5881 6.14312 27.2506 6.47177C26.5782 7.18551 26.2065 8.1265 26.2115 9.10248C26.2164 10.0785 26.5976 11.0158 27.2771 11.7228C27.9619 12.3825 28.8806 12.7501 29.836 12.7467L29.8316 12.7292ZM24.1215 12.7467C24.6518 12.7681 25.1743 12.6142 25.6065 12.3092V10.8126C25.3284 11.0012 24.9977 11.0992 24.6607 11.0927C24.5337 11.1158 24.4028 11.1079 24.2796 11.0695C24.1564 11.031 24.0446 10.9633 23.9539 10.8723C23.8632 10.7812 23.7964 10.6695 23.7594 10.547C23.7224 10.4244 23.7162 10.2948 23.7414 10.1694V3.75H21.8808V5.64474H25.6153V7.43446H21.8808V10.6157C21.8554 11.1768 22.0538 11.7253 22.4332 12.1429C22.6612 12.3504 22.9288 12.5107 23.2202 12.6144C23.5117 12.7181 23.8211 12.7631 24.1304 12.7467" fill="white"/>
<rect width="48" height="31.5" transform="translate(0 16.5)" fill="#00C987"/>
<path d="M9.08887 38.952V25.7668H11.3276V26.8096C11.6825 26.3806 12.1323 26.0394 12.6419 25.8127C13.1514 25.586 13.7068 25.48 14.2644 25.5031C16.8402 25.5031 18.6938 27.5528 18.6938 30.4895C18.6938 33.4262 16.9004 35.5359 14.2644 35.5359C13.7049 35.556 13.1483 35.4464 12.6385 35.2155C12.1288 34.9845 11.68 34.6387 11.3276 34.2053V39L9.08887 38.952ZM11.3276 29.3627V31.7601C11.538 32.262 11.8923 32.6911 12.3461 32.9939C12.7998 33.2965 13.3331 33.4594 13.8793 33.4622C15.3718 33.4622 16.3588 32.3474 16.3588 30.5494C16.3588 28.7515 15.3718 27.6607 13.8793 27.6607C13.3323 27.6528 12.7958 27.81 12.3403 28.1117C11.8848 28.4134 11.5318 28.8454 11.3276 29.3508" fill="white"/>
<path d="M20.2114 32.1119C20.1768 31.3931 20.4509 30.6906 20.9743 30.1573C21.4976 29.6239 22.2279 29.3026 23.0065 29.2631L27.0211 28.7942V28.3253C27.0392 28.2136 27.0295 28.0996 26.9925 27.992C26.9554 27.8844 26.8921 27.7861 26.8074 27.7046C26.7228 27.6231 26.619 27.5605 26.5041 27.5218C26.3891 27.4831 26.2661 27.4692 26.1445 27.4812H21.0626V25.5H26.1445C28.1772 25.5 29.3079 26.4144 29.3079 28.0556V34.7496H27.0211V33.5773C26.6362 34.045 26.1322 34.4181 25.5538 34.6635C24.9755 34.9088 24.3406 35.0189 23.7052 34.984C23.264 35.0268 22.8179 34.9834 22.396 34.8567C21.9741 34.73 21.5857 34.5229 21.2563 34.2487C20.9268 33.9745 20.6635 33.6394 20.4835 33.2652C20.3035 32.891 20.2108 32.4861 20.2114 32.0767V32.1119ZM24.2896 33.249C24.8578 33.2602 25.4176 33.1203 25.902 32.846C26.3864 32.5715 26.7749 32.1743 27.0211 31.7015V30.5293L23.9592 30.9278C23.1081 31.0333 22.6888 31.4436 22.6888 32.1002C22.6888 32.7566 23.286 33.2724 24.3404 33.2724" fill="white"/>
<path d="M31.2084 36.9079H32.7071C32.9393 36.9336 33.1717 36.8604 33.3576 36.7029C33.5435 36.5455 33.6694 36.3154 33.7099 36.0588L33.9854 35.2097L30.8228 25.5H32.9605L34.9218 32.2561L36.8062 25.5H38.9111L35.4401 36.6495C34.9665 38.1877 34.338 39 32.8173 39H31.2084V36.9079Z" fill="white"/>
</g>
<defs>
<clipPath id="clip0_1208_4166">
<rect width="48" height="48" rx="16" fill="white"/>
</clipPath>
</defs>
</svg>
