<svg width="106" height="75" viewBox="0 0 106 75" fill="none" xmlns="http://www.w3.org/2000/svg">
<rect x="31.9995" y="26.5" width="48" height="48" rx="24" fill="#2ED3B7"/>
<g clip-path="url(#clip0_15_13436)">
<path d="M51.9997 56.0598L47.373 51.4331C46.853 50.9131 46.013 50.9131 45.493 51.4331C44.973 51.9531 44.973 52.7931 45.493 53.3131L51.0664 58.8864C51.5864 59.4064 52.4264 59.4064 52.9464 58.8864L67.053 44.7798C67.573 44.2598 67.573 43.4198 67.053 42.8998C66.533 42.3798 65.693 42.3798 65.173 42.8998L51.9997 56.0598Z" fill="#F6FEFC"/>
</g>
<path d="M12.3029 23.9478C12.1979 26.0555 15.2694 23.7435 16.4076 24.489C17.3706 25.1199 16.2142 28.3793 18.7155 27.9261C21.2169 27.473 20.853 29.2523 21.4727 30.6392C22.3723 31.8215 24.8726 28.7378 25.2136 32.9596" stroke="#FF692E" stroke-linecap="round"/>
<path d="M69.9221 11.6475C66.8371 11.8025 71.0173 13.3391 66.8706 14.1891C65.8372 14.4009 70.6077 18.287 66.4401 17.1515C62.2725 16.0159 68.4676 20.4594 63.8275 18.3151" stroke="#107569" stroke-linecap="round"/>
<circle cx="89.5315" cy="24.2038" r="1.70382" fill="#C11574"/>
<circle cx="102.531" cy="34.2038" r="1.70382" fill="#2ED3B7"/>
<rect x="20.8276" y="45.5" width="3.40763" height="3.40763" fill="#C11574"/>
<rect x="14.8276" y="34.5" width="3.40763" height="3.40763" fill="#C11574"/>
<circle cx="1.70382" cy="1.70382" r="1.70382" transform="matrix(-1 0 0 1 61.2349 0.5)" fill="#C11574"/>
<circle cx="1.70382" cy="1.70382" r="1.70382" transform="matrix(-1 0 0 1 33.2349 13.5)" fill="#2ED3B7"/>
<rect width="3.40763" height="3.40763" transform="matrix(-1 0 0 1 73.2349 1.5)" fill="#C11574"/>
<path d="M100.681 26.2616C99.214 25.0054 100.48 28.4461 99.8239 28.8218C99.2692 29.1397 97.1159 26.5034 97.1431 28.5031C97.1703 30.5027 95.9637 29.2502 94.9182 28.9041C93.9837 28.8683 95.8574 32.3436 92.8545 30.212" stroke="#FF692E" stroke-linecap="round"/>
<circle cx="78.3276" cy="21" r="2.5" fill="#FF692E"/>
<circle cx="14.3276" cy="58" r="2.5" fill="#FF692E"/>
<circle cx="86.5315" cy="32.2038" r="1.70382" fill="#2ED3B7"/>
<path d="M93.8281 51.7275C95.0297 50.5551 95.8318 51.5355 97.1546 50.9244C98.4775 50.3134 99.0919 47.8089 101.254 49.6368C103.416 51.4647 102.964 48.7753 105.172 50.1517" stroke="#FF692E" stroke-linecap="round"/>
<rect x="87.8276" y="38.5" width="3.40763" height="3.40763" fill="#C11574"/>
<rect x="100.828" y="40.5" width="3.40763" height="3.40763" fill="#C11574"/>
<path d="M53.3765 19.8449C51.4009 19.4683 54.6628 17.6291 54.3992 16.6004C54.1762 15.7301 50.7529 15.905 52.0957 14.0975C53.4384 12.2899 51.6686 12.1817 50.6237 11.4091C49.8704 10.4676 53.6299 9.23077 49.8769 8.0564" stroke="#FF692E" stroke-linecap="round"/>
<path d="M82.5481 13.121C81.5654 11.356 85.1003 12.6185 85.7295 11.7264C86.2618 10.9715 83.9159 8.46851 86.1873 8.28319C88.4587 8.09786 87.4003 6.67052 87.3261 5.35216C87.5714 4.14364 90.9595 6.19134 89.4492 2.53032" stroke="#FF692E" stroke-linecap="round"/>
<path d="M14.4386 8.82346C17.4504 8.61759 13.4108 10.486 17.4743 10.7931C18.487 10.8696 13.9277 14.9425 17.9644 13.4404C22.0011 11.9384 16.066 16.6786 20.5396 14.2055" stroke="#107569" stroke-linecap="round"/>
<circle cx="1.5" cy="1.5" r="1.5" transform="matrix(-1 0 0 1 42.8276 14.5)" fill="#FF692E"/>
<circle cx="1.70382" cy="1.70382" r="1.70382" transform="matrix(-1 0 0 1 4.23486 34.5)" fill="#2ED3B7"/>
<path d="M6.82735 42.1676C7.64795 43.2667 8.31241 42.5978 9.26076 43.2671C10.2091 43.9364 10.5025 46.0141 12.2399 44.8591C13.9773 43.7041 13.4608 45.7813 15.2029 44.9919" stroke="#FF692E" stroke-linecap="round"/>
<rect width="3.40763" height="3.40763" transform="matrix(-1 0 0 1 4.23486 21.5)" fill="#C11574"/>
<rect width="3.40763" height="3.40763" transform="matrix(-1 0 0 1 31.2349 24.5)" fill="#C11574"/>
<rect width="3.40763" height="3.40763" transform="matrix(-1 0 0 1 33.2349 1.5)" fill="#C11574"/>
<defs>
<clipPath id="clip0_15_13436">
<rect width="32" height="32" fill="white" transform="translate(39.9995 34.5)"/>
</clipPath>
</defs>
</svg>
