<svg width="48" height="48" viewBox="0 0 48 48" fill="none" xmlns="http://www.w3.org/2000/svg">
<rect width="48" height="48" rx="16" fill="url(#paint0_radial_1208_4193)"/>
<path d="M29.067 20.8H35.955C36.6058 20.8 37.1333 21.3104 37.1333 21.94V28.0102C37.1333 30.3242 35.1945 32.2 32.8028 32.2H32.7823C30.3906 32.2004 28.4515 30.3248 28.4512 28.0108C28.4512 28.0106 28.4512 28.0104 28.4512 28.0102V21.3959C28.4512 21.0668 28.7269 20.8 29.067 20.8Z" fill="#5059C9"/>
<path d="M33.7226 19.6004C35.2638 19.6004 36.5133 18.3916 36.5133 16.9004C36.5133 15.4093 35.2638 14.2004 33.7226 14.2004C32.1813 14.2004 30.9319 15.4093 30.9319 16.9004C30.9319 18.3916 32.1813 19.6004 33.7226 19.6004Z" fill="#5059C9"/>
<path d="M25.04 19.6001C27.2663 19.6001 29.071 17.854 29.071 15.7001C29.071 13.5461 27.2663 11.8 25.04 11.8C22.8138 11.8 21.009 13.5461 21.009 15.7001C21.009 17.854 22.8138 19.6001 25.04 19.6001Z" fill="#7B83EB"/>
<path d="M30.4153 20.8H19.0454C18.4024 20.8154 17.8937 21.3317 17.9087 21.9539V28.8773C17.8189 32.6106 20.8717 35.7087 24.7304 35.8001C28.589 35.7087 31.6418 32.6106 31.552 28.8773V21.9539C31.5669 21.3317 31.0583 20.8154 30.4153 20.8Z" fill="#7B83EB"/>
<path opacity="0.1" d="M25.3506 20.8V30.502C25.3475 30.947 25.0689 31.3466 24.6436 31.516C24.5082 31.5715 24.3627 31.6 24.2157 31.6H18.4545C18.3739 31.402 18.2995 31.204 18.2375 31.0001C18.0204 30.3116 17.9096 29.5959 17.9088 28.8761V21.952C17.8939 21.3309 18.4017 20.8154 19.0436 20.8H25.3506Z" fill="black"/>
<path opacity="0.2" d="M24.7305 20.8V31.102C24.7304 31.2443 24.7009 31.3851 24.6436 31.516C24.4685 31.9275 24.0554 32.1971 23.5956 32.2H18.746C18.6406 32.002 18.5413 31.804 18.4545 31.6C18.3677 31.3961 18.2995 31.204 18.2375 31.0001C18.0204 30.3116 17.9096 29.5959 17.9088 28.8761V21.952C17.8939 21.3309 18.4017 20.8154 19.0436 20.8H24.7305Z" fill="black"/>
<path opacity="0.2" d="M24.7304 20.8V29.9021C24.7257 30.5066 24.2204 30.9955 23.5956 31.0001H18.2375C18.0204 30.3116 17.9096 29.5959 17.9088 28.8761V21.952C17.8939 21.3309 18.4017 20.8154 19.0436 20.8H24.7304Z" fill="black"/>
<path opacity="0.2" d="M24.1103 20.8V29.9021C24.1056 30.5066 23.6002 30.9955 22.9754 31.0001H18.2375C18.0204 30.3116 17.9096 29.5959 17.9088 28.8761V21.952C17.8939 21.3309 18.4017 20.8154 19.0436 20.8H24.1103Z" fill="black"/>
<path opacity="0.1" d="M25.3505 17.6982V19.5882C25.2451 19.5942 25.1459 19.6002 25.0405 19.6002C24.935 19.6002 24.8358 19.5942 24.7304 19.5882C24.5211 19.5748 24.3134 19.5426 24.1102 19.4922C22.8544 19.2045 21.8169 18.3524 21.3195 17.2002C21.234 17.0067 21.1675 16.8058 21.1211 16.6002H24.2157C24.8414 16.6025 25.3482 17.0927 25.3505 17.6982Z" fill="black"/>
<path opacity="0.2" d="M24.7302 18.2984V19.5884C24.5208 19.575 24.3132 19.5429 24.11 19.4924C22.8542 19.2047 21.8167 18.3526 21.3193 17.2004H23.5953C24.2211 17.2027 24.7278 17.693 24.7302 18.2984Z" fill="black"/>
<path opacity="0.2" d="M24.7302 18.2984V19.5884C24.5208 19.575 24.3132 19.5429 24.11 19.4924C22.8542 19.2047 21.8167 18.3526 21.3193 17.2004H23.5953C24.2211 17.2027 24.7278 17.693 24.7302 18.2984Z" fill="black"/>
<path opacity="0.2" d="M24.11 18.2984V19.4924C22.8542 19.2047 21.8167 18.3526 21.3193 17.2004H22.9751C23.6009 17.2027 24.1076 17.693 24.11 18.2984Z" fill="black"/>
<path d="M11.6035 17.2004H22.9734C23.6012 17.2004 24.1101 17.6928 24.1101 18.3002V29.3006C24.1101 29.908 23.6012 30.4004 22.9734 30.4004H11.6035C10.9757 30.4004 10.4668 29.908 10.4668 29.3006V18.3002C10.4668 17.6928 10.9757 17.2004 11.6035 17.2004Z" fill="url(#paint1_linear_1208_4193)"/>
<path d="M20.2796 21.3868H18.0068V27.3748H16.5587V21.3868H14.2964V20.2252H20.2796V21.3868Z" fill="white"/>
<defs>
<radialGradient id="paint0_radial_1208_4193" cx="0" cy="0" r="1" gradientUnits="userSpaceOnUse" gradientTransform="translate(14.4029 13.9228) rotate(47.7464) scale(46.0523)">
<stop stop-color="white"/>
<stop offset="0.810915" stop-color="#E4ECEF"/>
</radialGradient>
<linearGradient id="paint1_linear_1208_4193" x1="12.8369" y1="16.3411" x2="21.3062" y2="31.5022" gradientUnits="userSpaceOnUse">
<stop stop-color="#5A62C3"/>
<stop offset="0.5" stop-color="#4D55BD"/>
<stop offset="1" stop-color="#3940AB"/>
</linearGradient>
</defs>
</svg>
