<svg width="18" height="18" viewBox="0 0 18 18" fill="none" xmlns="http://www.w3.org/2000/svg">
<rect x="1.45776" y="1.57799" width="14.5763" height="14.5763" rx="7.28814" fill="#003462"/>
<path d="M4.57232 4.86121C4.58785 4.86836 4.62597 4.8841 4.66409 4.90126C5.97008 5.5263 7.27606 6.15134 8.58063 6.77638C8.7543 6.85934 8.75571 6.86077 8.6357 7.00809C8.11472 7.64457 7.59091 8.27819 7.07134 8.91611C7.00922 8.99334 6.9838 8.98905 6.92874 8.90752C6.46706 8.20954 5.99831 7.51727 5.53663 6.81929C5.15966 6.2486 4.78975 5.67219 4.41701 5.09864C4.38595 5.05001 4.35207 4.99852 4.38878 4.9456C4.42549 4.89268 4.4749 4.84691 4.57373 4.85978L4.57232 4.86121Z" fill="url(#paint0_linear_166_11114)"/>
<path d="M4.53139 13.2372C4.46221 13.2387 4.41844 13.1943 4.38738 13.1428C4.35208 13.0828 4.3902 13.0284 4.42409 12.9783C4.85753 12.3247 5.29239 11.6696 5.72442 11.0146C6.12681 10.4052 6.5306 9.79737 6.92875 9.1852C6.98664 9.09509 7.01629 9.09652 7.07982 9.17805C7.33537 9.51274 7.60645 9.83313 7.87189 10.1592C8.13732 10.4839 8.40275 10.81 8.67948 11.1261C8.74866 11.2048 8.75431 11.2405 8.64842 11.2906C7.90718 11.6382 7.16877 11.99 6.43036 12.3433C5.83879 12.6265 5.25003 12.9126 4.65987 13.1972C4.61893 13.2172 4.57939 13.243 4.52998 13.2387L4.53139 13.2372Z" fill="url(#paint1_linear_166_11114)"/>
<path d="M13.0407 8.91179C12.8543 8.84742 12.6891 8.73729 12.5112 8.65433C11.8067 8.32393 11.105 7.99067 10.4033 7.65741C9.95717 7.44573 9.51384 7.22833 9.0691 7.01521C9.02109 6.99233 8.97168 6.95371 8.92085 7.01521C8.81778 7.13822 8.70483 7.25407 8.61871 7.39138C8.45352 7.58876 8.28551 7.78471 8.12173 7.98209C7.84924 8.31106 7.58663 8.64861 7.30002 8.96471C7.26049 9.00762 7.21813 9.04909 7.30002 9.10488C7.35085 9.1392 7.38473 9.20214 7.42567 9.2522C7.82382 9.73564 8.22338 10.2176 8.62153 10.7011C8.7006 10.7983 8.78955 10.8885 8.85449 10.9943C8.93779 11.1302 9.01827 11.1187 9.14957 11.0558C10.2847 10.5037 11.4227 9.96162 12.5607 9.41668C12.7131 9.34374 12.867 9.27365 13.0195 9.19928C13.0873 9.16638 13.1212 9.11346 13.1184 9.03193C13.1169 8.97186 13.0929 8.93038 13.0421 8.91322L13.0407 8.91179Z" fill="url(#paint2_linear_166_11114)"/>
<defs>
<linearGradient id="paint0_linear_166_11114" x1="6.17903" y1="6.91512" x2="12.4054" y2="6.91512" gradientUnits="userSpaceOnUse">
<stop stop-color="#82BF75"/>
<stop offset="1" stop-color="#01BCEE"/>
</linearGradient>
<linearGradient id="paint1_linear_166_11114" x1="6.17905" y1="11.1776" x2="12.4054" y2="11.1776" gradientUnits="userSpaceOnUse">
<stop stop-color="#82BF75"/>
<stop offset="1" stop-color="#01BCEE"/>
</linearGradient>
<linearGradient id="paint2_linear_166_11114" x1="1.64687" y1="9.03908" x2="12.4054" y2="9.03908" gradientUnits="userSpaceOnUse">
<stop stop-color="#82BF75"/>
<stop offset="1" stop-color="#01BCEE"/>
</linearGradient>
</defs>
</svg>
